<svg width="14" height="14" viewBox="0 0 14 14" fill="none" xmlns="http://www.w3.org/2000/svg">
<path fill-rule="evenodd" clip-rule="evenodd" d="M13.7431 12.5742L9.91009 8.73968C10.5972 7.80258 10.9652 6.66965 10.9601 5.50768C10.947 2.47453 8.49372 0.0176965 5.46059 0.000177788C4.00907 -0.0063895 2.61522 0.567834 1.58953 1.59493C0.563845 2.62202 -0.00846493 4.01667 9.46502e-05 5.46818C0.0132044 8.5016 2.4667 10.9587 5.50009 10.9762C6.6668 10.9812 7.80387 10.6089 8.74159 9.91468L8.74559 9.91168L12.5751 13.7432C12.7821 13.9604 13.0907 14.0483 13.3811 13.9729C13.6716 13.8974 13.8983 13.6705 13.9735 13.38C14.0487 13.0895 13.9605 12.781 13.7431 12.5742ZM5.49609 9.87818C3.06951 9.86422 1.10675 7.89878 1.09609 5.47218C1.08955 4.31112 1.54743 3.19563 2.36783 2.37401C3.18822 1.5524 4.30303 1.09285 5.46409 1.09768C7.89068 1.11164 9.85344 3.07708 9.86409 5.50368C9.87064 6.66474 9.41276 7.78023 8.59236 8.60184C7.77197 9.42346 6.65716 9.883 5.49609 9.87818Z" fill="black" fill-opacity="0.36"/>
</svg>
