<svg width="375" height="316" viewBox="0 0 375 316" fill="none" xmlns="http://www.w3.org/2000/svg">
<path d="M43.1469 116.736C45.3121 116.736 47.0674 114.979 47.0674 112.812C47.0674 110.645 45.3121 108.888 43.1469 108.888C40.9816 108.888 39.2263 110.645 39.2263 112.812C39.2263 114.979 40.9816 116.736 43.1469 116.736Z" fill="#7E5DD7"/>
<path d="M206.574 20.3029C207.838 20.3029 208.863 19.2772 208.863 18.0119C208.863 16.7467 207.838 15.7209 206.574 15.7209C205.31 15.7209 204.285 16.7467 204.285 18.0119C204.285 19.2772 205.31 20.3029 206.574 20.3029Z" fill="#7E5DD7"/>
<path d="M329.19 94.9843C331.515 94.9843 333.4 93.098 333.4 90.771C333.4 88.4441 331.515 86.5577 329.19 86.5577C326.865 86.5577 324.98 88.4441 324.98 90.771C324.98 93.098 326.865 94.9843 329.19 94.9843Z" fill="#7E5DD7"/>
<path d="M63.1444 126.953C64.5395 126.953 65.6704 125.821 65.6704 124.425C65.6704 123.029 64.5395 121.897 63.1444 121.897C61.7494 121.897 60.6184 123.029 60.6184 124.425C60.6184 125.821 61.7494 126.953 63.1444 126.953Z" fill="#F8D72F"/>
<path d="M194.023 28.2819C195.2 28.2819 196.154 27.327 196.154 26.1489C196.154 24.9709 195.2 24.0159 194.023 24.0159C192.846 24.0159 191.891 24.9709 191.891 26.1489C191.891 27.327 192.846 28.2819 194.023 28.2819Z" fill="#F8D72F"/>
<path d="M272.276 83.2923C273.831 83.2923 275.092 82.0308 275.092 80.4746C275.092 78.9185 273.831 77.657 272.276 77.657C270.721 77.657 269.461 78.9185 269.461 80.4746C269.461 82.0308 270.721 83.2923 272.276 83.2923Z" fill="#F8D72F"/>
<path d="M138.03 101.12C139.091 101.12 139.951 100.259 139.951 99.1977C139.951 98.136 139.091 97.2753 138.03 97.2753C136.969 97.2753 136.109 98.136 136.109 99.1977C136.109 100.259 136.969 101.12 138.03 101.12Z" fill="#F8D72F"/>
<path d="M38.016 30.2307C40.3702 30.2307 42.2786 28.3207 42.2786 25.9647C42.2786 23.6086 40.3702 21.6987 38.016 21.6987C35.6618 21.6987 33.7534 23.6086 33.7534 25.9647C33.7534 28.3207 35.6618 30.2307 38.016 30.2307Z" fill="#F8D72F"/>
<path d="M208.31 42.3703C208.495 40.606 210.679 40.9483 211.705 41.475C212.494 41.8963 213.178 42.4756 213.968 42.8706C215.204 43.529 216.52 43.766 217.783 43.0286C219.309 42.1333 220.441 40.8693 222.282 40.5006C224.124 40.132 225.44 41.554 227.203 41.3696C228.492 41.2116 229.571 40.369 230.676 39.7633C231.386 39.3683 232.15 38.9996 232.992 39.0523C233.939 39.105 234.754 39.6316 235.57 40.053C236.754 40.6586 237.859 41.001 239.149 40.527C240.043 40.211 240.833 39.7896 241.806 39.7633C243.069 39.737 244.227 40.1846 245.174 41.0273C245.569 41.3696 246.121 40.7903 245.727 40.4743C244.49 39.3946 242.938 38.8416 241.306 39.026C240.28 39.1313 239.517 39.7106 238.517 39.9213C237.307 40.1846 236.307 39.5526 235.281 39.026C233.886 38.315 232.649 38.0253 231.176 38.631C229.439 39.342 227.913 41.0536 225.913 40.4216C225.045 40.132 224.308 39.6843 223.335 39.6316C222.493 39.6053 221.651 39.7896 220.862 40.1056C218.835 40.922 217.23 43.3183 214.915 42.423C213.205 41.7646 211.784 40.0003 209.784 40.1846C208.574 40.3163 207.6 41.1063 207.468 42.344C207.468 42.8706 208.258 42.8706 208.31 42.3703Z" fill="#E8E8E8"/>
<path d="M218.625 38.7627C219.52 37.3143 221.019 36.3663 222.73 36.261C224.335 36.1557 225.703 37.051 227.255 37.3407C228.361 37.525 229.308 37.2617 230.255 36.735C231.86 35.8397 233.018 35.234 234.912 35.55C236.123 35.7607 237.307 36.1293 238.57 36.2083C239.912 36.2873 240.938 35.866 242.122 35.2867C245.253 33.812 247.937 36.2347 251.095 36.182C251.595 36.182 251.595 35.392 251.095 35.392C248.016 35.4447 245.306 33.0483 242.201 34.3913C241.464 34.7073 240.78 35.155 239.991 35.3393C239.096 35.55 238.175 35.4183 237.281 35.2603C235.886 34.997 234.491 34.523 233.071 34.681C231.755 34.8127 230.808 35.5763 229.676 36.1557C227.676 37.209 226.098 35.9713 224.124 35.5763C221.677 35.1023 219.23 36.2873 217.915 38.3677C217.678 38.8153 218.336 39.2103 218.625 38.7627Z" fill="#E8E8E8"/>
<path d="M87.7465 129.665C88.2728 127.058 91.7987 129.007 93.2195 129.349C94.7983 129.718 96.1929 129.165 97.5874 128.454C98.4557 128.006 99.324 127.506 100.298 127.322C101.403 127.111 102.455 127.48 103.455 127.875C104.929 128.428 106.455 129.112 108.007 128.48C109.402 127.927 110.796 125.794 112.454 126.189C113.875 126.532 114.612 127.901 116.138 126.927C117.032 126.374 117.559 125.926 118.69 126.216C119.374 126.4 120.032 126.742 120.69 127.006C121.769 127.427 122.847 127.69 123.847 127.006C124.268 126.716 123.874 126.031 123.453 126.321C122.058 127.295 120.295 125.847 118.901 125.452C118.374 125.32 117.822 125.241 117.295 125.347C116.19 125.584 115.506 126.9 114.243 126.242C113.059 125.61 112.191 125.004 110.849 125.636C108.902 126.558 107.955 128.401 105.507 127.769C103.797 127.322 102.297 126.295 100.455 126.505C98.6399 126.716 97.2453 128.006 95.535 128.507C93.3248 129.165 91.6671 127.453 89.5095 127.585C88.3254 127.664 87.2203 128.27 86.9572 129.481C86.8782 129.955 87.6413 130.166 87.7465 129.665Z" fill="#E8E8E8"/>
<path d="M106.639 124.162C107.876 123.108 109.533 122.845 111.033 123.53C111.98 123.951 112.796 124.504 113.875 124.53C116.111 124.557 119.401 122.081 121.19 124.399C121.348 124.609 121.69 124.504 121.821 124.32C123.637 121.318 127.478 122.266 130.215 123.082C130.715 123.214 130.899 122.476 130.425 122.318C127.294 121.397 123.137 120.58 121.137 123.925C121.348 123.898 121.558 123.872 121.769 123.846C119.69 121.186 116.401 123.819 113.875 123.767C112.27 123.714 111.059 122.424 109.428 122.371C108.165 122.345 107.034 122.819 106.086 123.635C105.692 123.951 106.271 124.504 106.639 124.162Z" fill="#E8E8E8"/>
<path d="M4.88857 153.392C5.28326 152.259 6.33576 151.443 7.57244 151.443C8.65126 151.443 9.49325 152.18 10.2563 152.839C11.2299 153.655 12.2824 154.603 13.6506 154.366C15.2557 154.076 15.9661 152.391 17.2028 151.522C18.9921 150.284 21.4128 150.416 23.4126 151.022C25.0702 151.548 26.7016 152.523 28.4646 151.838C30.0696 151.206 31.0169 149.521 32.8851 149.415C35.911 149.257 38.5159 152.154 41.5419 150.706C41.9892 150.495 41.5945 149.81 41.1472 150.021C38.016 151.522 34.8585 147.625 31.5694 148.889C29.3855 149.731 28.5435 151.838 25.8333 151.048C23.9914 150.521 22.3864 149.731 20.4129 149.758C18.8342 149.784 17.3081 150.258 16.124 151.338C15.282 152.101 14.5979 153.497 13.3349 153.576C12.335 153.629 11.5193 152.812 10.8089 152.233C9.73007 151.338 8.62494 150.442 7.12513 150.653C5.70426 150.837 4.59913 151.812 4.12551 153.128C3.96763 153.655 4.73069 153.866 4.88857 153.392Z" fill="#E8E8E8"/>
<path d="M-11.9252 234.182C-4.16298 228.468 4.75696 224.439 14.1768 222.385C18.8868 221.358 23.7283 220.831 28.5435 220.858C33.8849 220.884 39.1737 221.49 44.4888 221.885C50.2776 222.306 56.1189 222.359 61.8025 221.095C62.3024 220.989 62.0919 220.226 61.5919 220.331C50.9091 222.754 40.042 220.226 29.2802 220.094C19.834 219.962 10.4141 221.858 1.70471 225.519C-3.29467 227.625 -8.0046 230.311 -12.3725 233.524C-12.7409 233.814 -12.3462 234.498 -11.9252 234.182Z" fill="#E8E8E8"/>
<path d="M43.1469 222.806C49.8829 217.935 56.5663 212.931 63.4075 208.191C66.565 206.006 69.8804 203.978 73.5379 202.714C77.1164 201.503 80.879 201.108 84.5891 200.607C88.0097 200.16 91.4567 199.607 94.6668 198.211C97.5348 196.973 100.035 195.077 102.324 192.971C107.27 188.362 111.27 182.78 117.296 179.462C124.505 175.512 132.925 174.616 140.977 173.8C141.477 173.747 141.477 172.957 140.977 173.01C133.925 173.721 126.689 174.485 120.085 177.25C113.822 179.857 109.454 184.465 104.876 189.284C102.534 191.759 100.087 194.208 97.1665 196.025C93.9563 198.027 90.3252 198.948 86.6152 199.528C83.063 200.081 79.4319 200.37 75.9323 201.213C72.2749 202.082 68.9069 203.715 65.7494 205.69C61.8814 208.112 58.224 210.904 54.5402 213.59C50.6197 216.434 46.6991 219.278 42.7522 222.095C42.3575 222.411 42.7522 223.096 43.1469 222.806Z" fill="#E8E8E8"/>
<path d="M165.105 265.703C169.473 261.543 175.025 259.067 180.472 256.592C186.734 253.748 193.049 251.562 199.969 253.379C200.469 253.511 200.68 252.747 200.18 252.616C193.418 250.825 187.155 252.747 180.945 255.512C175.157 258.093 169.21 260.7 164.553 265.124C164.158 265.493 164.737 266.046 165.105 265.703Z" fill="#E8E8E8"/>
<path d="M104.429 243.689C108.902 243.057 113.428 244.215 117.69 245.506C121.085 246.533 124.663 247.981 126.426 251.273C126.663 251.72 127.347 251.325 127.11 250.878C125.295 247.533 121.742 245.927 118.269 244.874C113.743 243.478 108.954 242.293 104.218 242.951C103.718 242.978 103.929 243.741 104.429 243.689Z" fill="#E8E8E8"/>
<path d="M142.371 241.134C147.16 236.131 153.896 233.366 160.79 233.603C161.29 233.629 161.29 232.839 160.79 232.813C153.686 232.576 146.713 235.42 141.792 240.581C141.45 240.95 142.003 241.529 142.371 241.134Z" fill="#E8E8E8"/>
<path d="M142.819 210.772C148.107 211.667 152.791 214.801 155.633 219.383C155.896 219.804 156.58 219.409 156.317 218.988C153.37 214.248 148.528 210.956 143.055 210.035C142.529 209.929 142.319 210.693 142.819 210.772Z" fill="#E8E8E8"/>
<path d="M170.394 205.532C176.104 199.817 184.05 196.736 192.128 197.079C192.628 197.105 192.628 196.315 192.128 196.289C183.866 195.92 175.709 199.106 169.842 204.979C169.473 205.347 170.026 205.9 170.394 205.532Z" fill="#E8E8E8"/>
<path d="M155.317 275.921C158.29 271.918 164.369 271.128 168.342 274.104C168.736 274.42 169.131 273.735 168.736 273.419C164.395 270.154 157.869 271.207 154.633 275.526C154.317 275.947 155.001 276.342 155.317 275.921Z" fill="#E8E8E8"/>
<path d="M195.154 223.122C199.101 219.62 203.837 217.118 208.942 215.802C211.442 215.17 214.02 214.801 216.625 214.775C217.757 214.748 220.783 215.486 221.125 213.774C221.23 213.274 220.467 213.063 220.362 213.563C220.204 214.459 217.494 213.985 216.862 213.985C215.652 213.985 214.441 214.064 213.257 214.222C210.968 214.485 208.705 214.985 206.521 215.723C202.127 217.171 198.101 219.515 194.628 222.596C194.207 222.912 194.76 223.465 195.154 223.122Z" fill="#E8E8E8"/>
<path d="M201.496 194.287C204.864 193.866 208.047 196.289 208.521 199.659C208.6 200.16 209.363 199.949 209.284 199.449C208.758 195.762 205.179 193.05 201.496 193.497C200.996 193.55 200.996 194.34 201.496 194.287Z" fill="#E8E8E8"/>
<path d="M213.047 199.817C218.941 192.865 228.387 189.468 237.333 191.101C237.833 191.18 238.044 190.443 237.544 190.337C228.334 188.652 218.572 192.075 212.494 199.264C212.152 199.633 212.705 200.186 213.047 199.817Z" fill="#E8E8E8"/>
<path d="M82.7472 272.84C87.5098 270.68 92.7986 271.418 97.6927 272.603C102.666 273.814 107.586 275.131 110.691 279.528C110.981 279.95 111.665 279.555 111.375 279.133C109.981 277.132 108.165 275.499 105.981 274.393C103.481 273.129 100.613 272.497 97.9032 271.839C92.7723 270.575 87.2993 269.917 82.3525 272.155C81.8789 272.366 82.2736 273.024 82.7472 272.84Z" fill="#E8E8E8"/>
<path d="M232.071 249.377C240.464 244.005 250.726 241.766 260.593 243.294C263.093 243.689 265.566 244.294 268.092 244.373C270.461 244.452 272.618 243.847 274.776 242.925C279.617 240.897 284.485 239.475 289.774 239.291C295.536 239.08 301.325 240.186 306.614 242.504C307.088 242.714 307.482 242.03 307.009 241.819C297.878 237.79 287.301 237.369 277.907 240.792C275.328 241.74 272.855 243.188 270.066 243.504C267.119 243.847 264.198 243.083 261.304 242.609C256.62 241.845 251.831 241.845 247.148 242.662C241.648 243.61 236.386 245.69 231.676 248.692C231.255 248.982 231.65 249.666 232.071 249.377Z" fill="#E8E8E8"/>
<path d="M272.092 231.075C280.644 227.388 289.984 223.438 299.51 224.676C301.588 224.939 303.72 225.861 305.825 225.624C307.772 225.413 309.561 224.36 311.482 223.939C315.929 222.964 320.612 223.675 324.585 225.808C325.033 226.045 325.427 225.361 324.98 225.124C321.27 223.122 317.06 222.332 312.876 222.885C310.719 223.175 308.877 224.044 306.798 224.623C304.325 225.308 301.772 224.176 299.299 223.86C289.669 222.701 280.328 226.651 271.671 230.39C271.25 230.601 271.645 231.286 272.092 231.075Z" fill="#E8E8E8"/>
<path d="M7.09871 262.938C11.4403 260.568 16.5449 260.99 21.1233 262.306C23.6493 263.017 26.0963 263.992 28.5434 264.913C30.5695 265.651 33.0692 266.941 35.2531 266.783C37.1213 266.651 38.8842 265.177 40.6208 264.518C42.8048 263.702 45.1203 263.228 47.4358 263.096C51.9878 262.859 56.4873 263.965 60.4078 266.335C60.8552 266.599 61.2498 265.914 60.8025 265.651C54.9085 262.096 47.5147 261.306 41.0155 263.544C39.4631 264.071 38.0685 264.887 36.595 265.572C34.4374 266.572 31.7535 265.229 29.6748 264.492C25.8595 263.123 22.0705 261.464 18.0447 260.779C14.1768 260.121 10.1773 260.331 6.67771 262.227C6.25671 262.491 6.6514 263.175 7.09871 262.938Z" fill="#E8E8E8"/>
<path d="M265.777 21.6724C266.04 33.733 266.04 45.7937 265.803 57.8807C265.803 58.381 266.593 58.381 266.593 57.8807C266.829 45.82 266.829 33.7594 266.566 21.6724C266.54 21.172 265.751 21.172 265.777 21.6724Z" fill="#E8E8E8"/>
<path d="M267.172 20.698C288.037 20.698 308.903 20.698 329.769 20.698C330.269 20.698 330.269 19.908 329.769 19.908C308.903 19.908 288.037 19.908 267.172 19.908C266.645 19.908 266.645 20.698 267.172 20.698Z" fill="#E8E8E8"/>
<path d="M269.934 58.7497C289.563 58.7497 309.193 58.7497 328.822 58.7497C329.322 58.7497 329.322 57.9597 328.822 57.9597C309.193 57.9597 289.563 57.9597 269.934 57.9597C269.434 57.9597 269.434 58.7497 269.934 58.7497Z" fill="#E8E8E8"/>
<path d="M330.769 20.303C330.769 32.2056 330.769 44.1346 330.769 56.0373C330.769 56.5376 331.558 56.5376 331.558 56.0373C331.558 44.1346 331.558 32.2056 331.558 20.303C331.558 19.7763 330.769 19.7763 330.769 20.303Z" fill="#E8E8E8"/>
<path d="M292.774 18.407C292.695 19.039 293.221 19.4866 293.852 19.355C294.773 19.1706 294.879 17.9066 295.142 17.1956C295.431 16.432 295.826 15.6946 296.299 15.01C296.694 14.457 296.826 14.0356 297.51 14.22C298.168 14.4043 298.089 14.7203 298.273 15.2996C298.773 17.0113 299.194 18.723 299.562 20.4346C299.667 20.935 300.43 20.7243 300.325 20.224C299.957 18.486 299.536 16.7743 299.036 15.089C298.825 14.378 298.615 13.0613 297.668 12.956C296.747 12.8243 296.036 14.0093 295.615 14.6413C295.194 15.2206 294.852 15.8526 294.589 16.5373C294.458 16.827 294.352 17.143 294.247 17.4326C294.194 17.5643 294.168 17.696 294.116 17.854C294.089 18.17 293.905 18.3543 293.589 18.4596C293.642 17.9066 292.853 17.9066 292.774 18.407Z" fill="#E8E8E8"/>
<path d="M269.092 25.3853C269.092 34.6546 269.092 43.9503 269.092 53.2196C269.092 53.7199 269.882 53.7199 269.882 53.2196C269.882 43.9503 269.882 34.6546 269.882 25.3853C269.882 24.8849 269.092 24.8849 269.092 25.3853Z" fill="#E8E8E8"/>
<path d="M270.882 53.641C288.8 53.641 306.745 53.641 324.664 53.641C325.164 53.641 325.164 52.851 324.664 52.851C306.745 52.851 288.8 52.851 270.882 52.851C270.355 52.851 270.355 53.641 270.882 53.641Z" fill="#E8E8E8"/>
<path d="M271.329 25.3326C289.563 25.3326 307.798 25.3326 326.059 25.3326C326.559 25.3326 326.559 24.5426 326.059 24.5426C307.824 24.5426 289.59 24.5426 271.329 24.5426C270.829 24.5426 270.829 25.3326 271.329 25.3326Z" fill="#E8E8E8"/>
<path d="M326.112 24.016C326.112 33.4433 326.112 42.897 326.112 52.3243C326.112 52.8246 326.901 52.8246 326.901 52.3243C326.901 42.897 326.901 33.4433 326.901 24.016C326.901 23.4893 326.112 23.4893 326.112 24.016Z" fill="#E8E8E8"/>
<path d="M270.013 40.685C275.644 38.5256 280.959 42.976 285.801 45.2143C290.563 47.4263 295.615 48.901 300.825 49.6646C301.325 49.7436 301.536 48.9799 301.036 48.9009C295.273 48.0583 289.695 46.3466 284.485 43.7133C279.959 41.4223 275.065 37.8936 269.776 39.9213C269.329 40.1056 269.54 40.8693 270.013 40.685Z" fill="#E8E8E8"/>
<path d="M289.669 45.7147C292.905 45.6357 296.089 45.2407 299.22 44.4243C300.773 44.0293 302.272 43.45 303.799 43.0023C305.667 42.4493 307.219 42.502 309.087 43.0023C311.798 43.766 313.955 43.3183 316.455 42.0543C319.665 40.448 322.691 39.2893 326.322 39.2893C326.822 39.2893 326.822 38.4993 326.322 38.4993C323.349 38.4993 320.481 39.1577 317.823 40.4743C316.402 41.159 315.034 42.0017 313.508 42.423C311.692 42.9233 310.193 42.4493 308.456 42.0017C305.535 41.2643 302.957 42.502 300.194 43.3183C296.773 44.319 293.247 44.8193 289.669 44.8983C289.142 44.9247 289.142 45.7147 289.669 45.7147Z" fill="#E8E8E8"/>
<path d="M314.666 41.0537C314.192 40.6323 313.245 40.1057 312.982 39.5527C312.666 39.342 312.718 39.026 313.192 38.6573C313.192 38.0517 313.429 37.762 313.929 37.7883C314.218 37.6567 314.587 37.683 314.902 37.6567C315.744 37.5513 316.639 37.288 317.06 36.498C317.402 35.8923 317.244 35.4183 316.955 34.8653C316.534 34.049 316.008 33.259 316.876 32.469C317.823 31.6263 319.165 32.074 320.06 32.706C320.296 32.864 320.56 32.6797 320.638 32.469C320.954 31.6527 321.665 31.0733 322.507 30.9153C322.849 30.8363 323.27 30.8363 323.586 30.9417C323.954 31.0733 325.112 32.0477 324.27 32.5217C323.822 32.785 324.217 33.4697 324.664 33.2063C325.98 32.4427 325.112 30.652 323.928 30.2307C322.244 29.625 320.481 30.6783 319.849 32.2583C320.033 32.1793 320.244 32.1003 320.428 32.0213C319.297 31.2577 317.744 30.8363 316.534 31.7053C315.35 32.548 315.455 33.6277 315.85 34.8127C315.929 34.918 316.008 35.0233 316.113 35.1287C316.323 36.2083 316.008 36.7877 315.113 36.8667C314.587 36.972 314.034 36.9457 313.508 37.0773C312.876 37.2353 312.324 37.5513 311.982 38.1043C311.087 39.6317 313.139 40.7903 314.087 41.633C314.508 41.949 315.06 41.3697 314.666 41.0537Z" fill="#E8E8E8"/>
<path d="M294.852 33.417C293.958 32.8376 294.668 31.521 295.326 31.0733C296.089 30.5466 297.247 30.4413 298.01 31.0206C298.825 31.6 298.957 32.9166 298.247 33.6803C297.51 34.4703 296.247 34.3123 295.536 33.575C295.194 33.2063 294.642 33.7593 294.984 34.128C295.957 35.1813 297.773 35.313 298.799 34.2333C299.825 33.1536 299.667 31.2576 298.483 30.3886C297.299 29.5196 295.457 29.7566 294.458 30.7573C293.563 31.6526 293.247 33.338 294.431 34.1016C294.879 34.365 295.273 33.6803 294.852 33.417Z" fill="#E8E8E8"/>
<path d="M59.4606 31.7843C58.7239 48.6376 58.2503 65.491 58.0398 82.3707C58.0398 82.871 58.8291 82.871 58.8291 82.3707C59.0396 65.491 59.5133 48.6376 60.25 31.7843C60.2763 31.284 59.4869 31.284 59.4606 31.7843Z" fill="#E8E8E8"/>
<path d="M59.1975 81.607C81.2737 76.1033 103.139 69.8097 124.768 62.726C130.952 60.6983 137.109 58.618 143.24 56.485C143.713 56.327 143.503 55.5633 143.029 55.7213C121.558 63.2263 99.824 69.9677 77.8794 75.919C71.617 77.6307 65.3283 79.2633 59.0133 80.8433C58.5134 80.9487 58.7239 81.7123 59.1975 81.607Z" fill="#E8E8E8"/>
<path d="M61.6446 31.442C81.8 26.2807 102.192 22.041 122.742 18.7494C128.715 17.8014 134.688 16.906 140.687 16.116C141.187 16.037 141.187 15.247 140.687 15.326C119.953 18.091 99.3241 21.804 78.9319 26.4387C73.0905 27.7817 67.2755 29.1774 61.4604 30.6784C60.9341 30.7837 61.1446 31.5474 61.6446 31.442Z" fill="#E8E8E8"/>
<path d="M140.793 15.8263C141.503 29.0193 142.213 42.2123 142.924 55.4053C142.95 55.9056 143.74 55.9056 143.713 55.4053C143.003 42.2123 142.292 29.0193 141.582 15.8263C141.556 15.2996 140.766 15.2996 140.793 15.8263Z" fill="#E8E8E8"/>
<path d="M59.6975 37.3143C62.434 36.6297 65.1968 35.9713 67.9333 35.2867C67.7754 35.155 67.5912 35.0233 67.4333 34.918C66.1703 49.138 65.7494 63.4107 66.1967 77.6833C66.223 78.1837 67.0123 78.1837 66.986 77.6833C66.5387 63.4107 66.9597 49.138 68.2227 34.918C68.249 34.6547 67.9596 34.4703 67.7228 34.5493C64.9863 35.234 62.2235 35.8923 59.487 36.577C59.0134 36.6823 59.2239 37.446 59.6975 37.3143Z" fill="#E8E8E8"/>
<path d="M103.797 67.7293C103.824 65.6753 103.929 63.6213 104.139 61.5673C104.192 61.1196 104.113 60.4086 104.35 60.0136C104.718 59.3816 105.692 59.1709 106.323 58.9866C107.244 58.7233 108.165 58.4599 109.086 58.1966C113.007 57.0906 116.927 55.9846 120.874 54.8786C124.716 53.7989 128.557 52.7192 132.399 51.6396C133.399 51.3499 134.399 51.0866 135.399 50.7969C136.293 50.5336 137.477 49.9542 138.398 49.9542C139.293 49.9542 139.345 50.3756 139.266 51.0866C139.214 51.5606 139.188 52.0609 139.135 52.5349C139.056 53.5092 138.951 54.4572 138.872 55.4316C138.819 55.9319 139.609 55.9319 139.661 55.4316C139.766 54.1412 139.898 52.8509 140.003 51.5606C140.056 50.9286 140.319 50.0596 139.872 49.5066C139.03 48.4006 136.662 49.6119 135.662 49.9016C130.82 51.2709 125.979 52.6402 121.137 54.0096C116.296 55.3789 111.454 56.7482 106.613 58.1176C105.192 58.5126 103.824 58.6443 103.508 60.2506C103.034 62.6733 103.06 65.3066 103.034 67.7556C103.008 68.2296 103.797 68.2296 103.797 67.7293Z" fill="#E8E8E8"/>
<path d="M103.613 59.3553C98.0874 58.7759 92.5355 58.1966 87.0888 57.0643C86.773 57.0116 86.5626 57.2486 86.6152 57.5383C86.9572 59.6713 87.0625 61.9886 87.6414 64.0689C88.0361 65.4383 89.2201 65.7543 90.4305 66.2283C94.2721 67.7293 98.2716 68.7563 102.35 69.3619C102.85 69.4409 103.061 68.6773 102.561 68.5983C99.1136 68.0979 95.7456 67.2816 92.4566 66.1493C91.6935 65.8859 90.9304 65.5963 90.1937 65.3066C88.9833 64.8063 88.4834 64.3059 88.2729 62.9893C87.9834 61.1196 87.694 59.2236 87.4046 57.3539C87.2467 57.5119 87.0888 57.6699 86.9309 57.8279C92.4566 58.9603 98.0611 59.5396 103.666 60.1453C104.113 60.1979 104.113 59.4079 103.613 59.3553Z" fill="#E8E8E8"/>
<path d="M87.6413 57.2486C90.7988 56.0636 93.9827 55.0103 97.2191 54.115C97.719 53.9833 97.5085 53.2196 97.0086 53.3513C93.7722 54.273 90.562 55.3263 87.4308 56.485C86.9572 56.643 87.1414 57.4066 87.6413 57.2486Z" fill="#E8E8E8"/>
<path d="M107.165 51.0866C107.349 52.9826 107.534 54.8786 107.691 56.7483C107.744 57.2486 108.533 57.2486 108.481 56.7483C108.297 54.8523 108.112 52.9563 107.955 51.0866C107.902 50.5863 107.113 50.5863 107.165 51.0866Z" fill="#E8E8E8"/>
<path d="M107.113 50.6654C111.954 50.3494 116.532 48.4007 121.19 47.163C126.084 45.8464 131.057 44.8457 136.083 44.1347C135.925 43.9767 135.767 43.8187 135.609 43.6607C135.32 45.583 135.135 47.5054 135.03 49.4277C135.004 49.928 135.793 49.928 135.82 49.4277C135.925 47.558 136.109 45.7147 136.372 43.8713C136.425 43.5553 136.214 43.3447 135.899 43.3973C131.031 44.082 126.242 45.0563 121.479 46.294C116.743 47.5317 112.033 49.5857 107.139 49.9017C106.586 49.9017 106.586 50.6917 107.113 50.6654Z" fill="#E8E8E8"/>
<path d="M97.5085 48.7956C97.4033 50.086 97.0086 51.666 97.1665 52.93C97.2717 53.6936 97.7453 53.9306 98.4032 54.1413C101.403 55.063 104.534 55.6423 107.586 56.3796C108.086 56.5113 108.297 55.7476 107.797 55.616C105.508 55.063 103.192 54.4836 100.903 53.9306C100.324 53.799 99.6662 53.72 99.1136 53.483C98.3769 53.167 98.0611 52.9036 97.9822 52.0346C97.9032 51.0076 98.1663 49.7963 98.2716 48.7693C98.3242 48.269 97.5348 48.269 97.5085 48.7956Z" fill="#E8E8E8"/>
<path d="M97.6401 48.3744C100.771 48.8747 103.902 49.3751 107.034 49.8754C107.534 49.9544 107.744 49.1907 107.244 49.1117C104.113 48.6114 100.982 48.1111 97.8506 47.6107C97.3507 47.5581 97.1402 48.2954 97.6401 48.3744Z" fill="#E8E8E8"/>
<path d="M98.3242 47.5053C103.324 46.0833 108.323 44.6876 113.322 43.2656C118.269 41.87 123.242 40.4743 128.373 40.1056C128.873 40.0793 128.873 39.2893 128.373 39.3156C123.321 39.6843 118.453 41.001 113.585 42.3703C108.428 43.8186 103.271 45.2933 98.0874 46.7416C97.6401 46.8733 97.8506 47.637 98.3242 47.5053Z" fill="#E8E8E8"/>
<path d="M126.584 39.9477C129.583 40.9221 132.478 42.1334 135.267 43.6081C135.714 43.8451 136.109 43.1604 135.662 42.9234C132.794 41.4487 129.847 40.1847 126.794 39.1841C126.294 39.0261 126.084 39.7897 126.584 39.9477Z" fill="#E8E8E8"/>
<path d="M67.2492 42.6599C68.749 42.1069 70.3015 41.7646 71.9065 41.7909C72.5643 41.7909 73.3011 41.7383 73.6431 42.6073C73.7484 42.8706 73.6431 43.3709 73.6695 43.6606C73.6695 44.4506 73.6958 45.2406 73.6958 46.0306C73.7484 49.3486 73.7747 52.6929 73.8273 56.0109C73.9063 62.5679 74.0115 69.1513 74.0905 75.7083C74.0905 76.2086 74.8798 76.2086 74.8798 75.7083C74.7746 67.9926 74.6693 60.3033 74.5904 52.5876C74.5641 50.6653 74.5378 48.7429 74.5115 46.8206C74.5115 45.9516 74.4851 45.0563 74.4851 44.1873C74.4851 43.4763 74.643 42.5546 74.3799 41.8699C74.0115 40.9219 72.7748 41.0009 71.9592 41.0009C70.2752 40.9746 68.6438 41.3169 67.0913 41.8963C66.5651 42.0806 66.7756 42.8443 67.2492 42.6599Z" fill="#E8E8E8"/>
<path d="M75.2745 68.73C79.3792 67.5977 83.4577 66.4653 87.5624 65.333C88.0624 65.2013 87.8519 64.4377 87.3519 64.5693C83.2472 65.7017 79.1687 66.834 75.064 67.9663C74.5904 68.1243 74.7746 68.8617 75.2745 68.73Z" fill="#E8E8E8"/>
<path d="M60.1711 88.5326C60.0395 92.7723 59.908 97.0383 59.7501 101.278C59.7238 101.778 60.5132 101.778 60.5395 101.278C60.671 97.0383 60.8026 92.7723 60.9605 88.5326C60.9868 88.0323 60.1974 88.0323 60.1711 88.5326Z" fill="#E8E8E8"/>
<path d="M109.402 63.0682C109.586 61.5146 111.638 61.7779 112.717 61.6462C113.349 61.5672 113.928 61.3829 114.454 61.0669C115.112 60.6719 115.585 60.0662 116.243 59.6449C116.98 59.1709 118.48 58.8549 118.69 60.0926C118.743 60.4086 119.164 60.4612 119.348 60.2769C120.295 59.4079 121.269 58.5126 122.426 57.9332C123.111 57.5909 123.847 57.3539 124.61 57.3802C125.11 57.4066 125.531 57.6172 126.031 57.6172C126.847 57.6172 127.636 57.0642 128.347 56.6956C129.61 56.0899 130.846 55.4579 132.109 54.8523C132.557 54.6416 132.162 53.9569 131.715 54.1676C130.452 54.7732 129.215 55.4052 127.952 56.0109C127.136 56.4059 126.505 56.8009 125.558 56.7219C125.031 56.6692 124.584 56.5639 124.005 56.6166C121.953 56.8536 120.243 58.3282 118.795 59.6976C119.006 59.7502 119.243 59.8029 119.453 59.8819C119.322 59.0392 118.664 58.5916 117.848 58.4599C116.769 58.3019 115.98 58.8286 115.164 59.4869C114.322 60.1716 113.743 60.6719 112.665 60.8562C111.928 60.9616 111.165 60.8826 110.454 61.0932C109.454 61.3829 108.77 62.0412 108.639 63.0682C108.56 63.5686 109.349 63.5686 109.402 63.0682Z" fill="#E8E8E8"/>
<path d="M113.112 51.824C114.296 50.6917 116.401 51.9557 117.874 51.7187C118.506 51.6133 118.98 51.271 119.558 51.0077C120.532 50.56 121.584 50.6917 122.637 50.5073C125.979 49.928 128.952 47.084 132.478 47.7423C132.978 47.8477 133.188 47.084 132.688 46.9787C128.873 46.2677 125.9 49.217 122.295 49.7437C121.374 49.8753 120.427 49.7963 119.558 50.1387C119.058 50.323 118.611 50.6917 118.111 50.8497C117.506 51.034 116.901 50.9287 116.296 50.8497C114.98 50.639 113.638 50.2177 112.559 51.2447C112.191 51.6133 112.743 52.1663 113.112 51.824Z" fill="#E8E8E8"/>
<path d="M59.9343 88.6116C81.6158 81.765 103.297 74.9183 124.952 68.098C131.11 66.1493 137.293 64.2006 143.45 62.252C143.924 62.094 143.74 61.3303 143.24 61.4883C121.558 68.335 99.8766 75.1816 78.2214 82.002C72.0643 83.9506 65.8809 85.8993 59.7238 87.848C59.2501 88.006 59.4606 88.7696 59.9343 88.6116Z" fill="#E8E8E8"/>
<path d="M60.329 101.331C82.2736 95.669 103.85 88.5063 124.821 79.9216C130.61 77.5516 136.372 75.0763 142.082 72.4693C142.556 72.2587 142.135 71.574 141.687 71.7846C121.137 81.1067 99.9819 89.033 78.353 95.4846C72.3011 97.3017 66.223 98.987 60.1185 100.567C59.6185 100.699 59.829 101.462 60.329 101.331Z" fill="#E8E8E8"/>
<path d="M142.608 62.726C142.634 65.7017 142.687 68.651 142.713 71.6267C142.713 72.127 143.503 72.127 143.503 71.6267C143.476 68.651 143.424 65.7017 143.398 62.726C143.398 62.2257 142.608 62.1993 142.608 62.726Z" fill="#E8E8E8"/>
<path d="M101.245 186.756C105.297 184.254 110.717 179.988 113.796 173.168C117.032 166.005 115.033 161.897 116.611 155.604C119.743 143.201 131.11 144.939 143.397 130.824C156.133 116.209 151.475 105.676 166.342 91.008C171.526 85.873 176.683 82.634 180.209 80.6853C179.998 82.7393 179.761 84.7933 179.551 86.8736C178.551 87.374 176.999 88.2166 175.236 89.428C170.289 92.8513 165.763 97.96 160.264 109.626C155.212 120.317 157.422 119.474 154.107 125.083C148.344 134.906 139.398 141.305 133.846 145.255C126.9 150.205 122.979 151.443 121.006 156.552C119.269 161.055 120.953 163.609 120.374 168.797C119.848 173.537 117.506 179.936 109.375 187.151C106.665 186.993 103.955 186.888 101.245 186.756Z" fill="#7E5DD7"/>
<path d="M54.698 213.063L94.5615 221.437L134.925 188.336L98.3505 186.624L54.698 213.063Z" fill="white" stroke="black" stroke-width="3" stroke-miterlimit="10"/>
<path d="M64.2759 210.877C72.6696 212.299 80.9843 214.037 89.2464 216.065C89.7464 216.197 89.9569 215.433 89.4569 215.301C81.1948 213.274 72.8538 211.536 64.4864 210.114C63.9864 210.035 63.7496 210.798 64.2759 210.877Z" fill="black"/>
<path d="M64.6179 210.245C75.6165 203.53 86.6151 196.789 97.6137 190.074C98.0347 189.811 97.64 189.126 97.2191 189.389C86.2204 196.104 75.2218 202.846 64.2232 209.561C63.8022 209.85 64.1969 210.535 64.6179 210.245Z" fill="black"/>
<path d="M97.798 189.679C105.429 190.311 113.086 190.68 120.769 190.838C121.269 190.838 121.269 190.048 120.769 190.048C113.112 189.916 105.455 189.521 97.798 188.889C97.2718 188.836 97.2718 189.626 97.798 189.679Z" fill="black"/>
<path d="M89.5095 216.012C99.903 207.48 110.375 199.027 120.9 190.706C121.295 190.39 120.742 189.837 120.348 190.153C109.796 198.501 99.3504 206.927 88.957 215.459C88.5623 215.775 89.1412 216.355 89.5095 216.012Z" fill="black"/>
<path d="M68.17 208.112C75.8796 209.64 83.5365 211.43 91.1145 213.484C91.6145 213.616 91.825 212.852 91.325 212.721C83.747 210.667 76.0901 208.85 68.3805 207.349C67.8806 207.243 67.6701 208.007 68.17 208.112Z" fill="black"/>
<path d="M73.801 204.952C80.8527 206.348 87.7992 208.297 94.5615 210.772C95.0351 210.956 95.2456 210.193 94.772 210.008C88.0097 207.533 81.0632 205.611 74.0115 204.189C73.5115 204.083 73.301 204.847 73.801 204.952Z" fill="black"/>
<path d="M92.5355 209.482C97.3507 205.821 102.192 202.135 107.007 198.474C107.402 198.158 107.007 197.474 106.613 197.79C101.797 201.45 96.956 205.137 92.1408 208.797C91.7461 209.113 92.1408 209.798 92.5355 209.482Z" fill="black"/>
<path d="M78.9319 201.713C84.4312 203.188 89.8516 204.9 95.193 206.848C95.6667 207.033 95.8772 206.269 95.4035 206.085C90.0621 204.136 84.6417 202.424 79.1424 200.95C78.6425 200.818 78.432 201.582 78.9319 201.713Z" fill="black"/>
<path d="M84.7206 198.343C89.8779 199.607 94.9036 201.345 99.7451 203.557C100.192 203.767 100.613 203.083 100.14 202.872C95.2457 200.634 90.1673 198.869 84.9311 197.579C84.4575 197.474 84.247 198.237 84.7206 198.343Z" fill="black"/>
<path d="M89.2727 195.525C94.2194 197.158 99.1399 198.79 104.087 200.449C104.56 200.607 104.771 199.844 104.297 199.686C99.3504 198.053 94.4299 196.42 89.4832 194.761C89.0096 194.603 88.7991 195.367 89.2727 195.525Z" fill="black"/>
<path d="M92.8512 192.734C99.1136 194.077 105.35 195.42 111.612 196.763C112.112 196.868 112.322 196.104 111.823 195.999C105.56 194.656 99.3241 193.313 93.0617 191.97C92.5618 191.865 92.3513 192.628 92.8512 192.734Z" fill="black"/>
<path d="M107.034 198.343C107.928 197.869 108.691 197.237 109.323 196.447C109.639 196.052 109.086 195.499 108.77 195.894C108.165 196.631 107.455 197.21 106.639 197.658C106.192 197.895 106.586 198.58 107.034 198.343Z" fill="black"/>
<path d="M96.8506 190.917C103.06 192.181 109.27 193.445 115.454 194.682C115.954 194.788 116.164 194.024 115.664 193.919C109.454 192.655 103.245 191.391 97.0612 190.153C96.5612 190.048 96.3507 190.811 96.8506 190.917Z" fill="black"/>
<path d="M74.0641 209.087C83.1156 203.214 91.9829 197.079 100.64 190.68C101.034 190.39 100.64 189.705 100.245 189.995C91.5882 196.42 82.7209 202.556 73.6694 208.402C73.2484 208.692 73.6431 209.376 74.0641 209.087Z" fill="black"/>
<path d="M79.7738 210.351C88.5885 203.846 97.4296 197.342 106.244 190.838C106.639 190.548 106.244 189.863 105.85 190.153C97.0349 196.657 88.1939 203.162 79.3792 209.666C78.9845 209.956 79.3792 210.64 79.7738 210.351Z" fill="black"/>
<path d="M85.2732 211.825C93.7458 204.636 102.429 197.711 111.323 191.075C111.717 190.785 111.323 190.1 110.928 190.39C101.982 197.079 93.2196 204.031 84.7206 211.272C84.3259 211.588 84.9048 212.141 85.2732 211.825Z" fill="black"/>
<path d="M33.0166 170.561C40.2525 184.728 47.4884 198.896 54.7244 213.063C69.2752 204.241 83.826 195.446 98.3768 186.624C92.5618 174.485 86.7204 162.371 80.9053 150.232C64.9336 156.999 48.9619 163.767 33.0166 170.561Z" fill="white" stroke="black" stroke-width="3" stroke-miterlimit="10"/>
<path d="M36.8055 171.693C43.1995 183.938 49.5934 196.157 55.9874 208.402C68.8542 200.792 81.6947 193.181 94.5615 185.545C89.4043 175.064 84.2733 164.583 79.1161 154.103C65.0126 159.975 50.909 165.847 36.8055 171.693Z" fill="white" stroke="black" stroke-width="3" stroke-miterlimit="10"/>
<path d="M52.9352 180.963C53.9087 182.806 54.9875 184.57 56.1979 186.256C56.3295 186.44 56.54 186.493 56.7505 186.387C64.2232 182.516 71.696 178.672 79.1687 174.801C79.616 174.564 79.2213 173.879 78.774 174.116C71.3013 177.987 63.8285 181.832 56.3558 185.703C56.54 185.755 56.7242 185.808 56.9083 185.834C55.698 184.149 54.5928 182.385 53.6456 180.541C53.3825 180.094 52.6983 180.515 52.9352 180.963Z" fill="#E8E8E8"/>
<path d="M54.1192 180.673C58.7765 179.119 62.9076 176.512 67.1439 174.116C69.3541 172.852 71.617 171.641 73.9851 170.693C74.5114 170.482 75.0639 170.298 75.5902 170.113C75.9849 169.982 77.0111 169.481 77.4584 169.56C78.0899 169.692 78.1162 170.798 78.2215 171.298C78.3793 172.088 78.5635 172.852 78.7214 173.642C78.8266 174.142 79.5897 173.932 79.4845 173.431C79.3266 172.641 79.1424 171.878 78.9845 171.088C78.853 170.535 78.853 169.771 78.5372 169.244C78.0899 168.481 77.3005 168.77 76.6164 168.955C74.0378 169.666 71.5644 170.798 69.1963 172.036C64.1179 174.722 59.3817 178.066 53.9087 179.883C53.4088 180.067 53.6193 180.831 54.1192 180.673Z" fill="#E8E8E8"/>
<path d="M66.4334 173.984C67.4859 175.696 68.5384 177.408 69.5909 179.119C69.854 179.541 70.5381 179.146 70.275 178.724C69.2225 177.013 68.17 175.301 67.1175 173.589C66.8544 173.142 66.1703 173.563 66.4334 173.984Z" fill="#E8E8E8"/>
<path d="M62.0655 169.771C62.776 169.534 63.4601 169.323 64.1705 169.086C64.0127 168.928 63.8548 168.77 63.6969 168.612C63.2496 170.298 63.3285 171.983 63.96 173.616C64.1442 174.09 64.9073 173.879 64.7231 173.405C64.1442 171.904 64.0653 170.377 64.46 168.823C64.5389 168.533 64.2758 168.244 63.9863 168.349C63.2759 168.586 62.5918 168.797 61.8814 169.034C61.3551 169.165 61.5656 169.929 62.0655 169.771Z" fill="#E8E8E8"/>
<path d="M62.7761 171.93C63.6181 170.956 64.6969 170.324 65.9599 170.061C66.4598 169.955 66.2493 169.192 65.7494 169.297C64.3548 169.56 63.1181 170.271 62.1972 171.351C61.9078 171.746 62.4603 172.299 62.7761 171.93Z" fill="#E8E8E8"/>
<path d="M67.6175 170.192C67.1965 169.534 66.6966 168.797 66.7229 167.98C66.7492 167.401 67.3807 166.479 68.0911 166.822C68.67 167.111 68.8805 168.349 68.8279 168.928C68.7489 169.666 68.0385 170.429 67.2755 169.982C66.8281 169.718 66.4335 170.403 66.8808 170.666C67.8017 171.193 68.9331 170.745 69.3804 169.824C69.8804 168.823 69.5646 167.059 68.6963 166.321C67.9333 165.663 66.8281 166.111 66.3019 166.848C65.4336 168.059 66.2493 169.534 66.9334 170.614C67.2228 171.009 67.9069 170.614 67.6175 170.192Z" fill="#E8E8E8"/>
<path d="M71.6433 164.32C71.4854 165.979 71.3276 167.638 71.1697 169.271C71.1171 169.771 71.9064 169.771 71.9591 169.271C72.1169 167.612 72.2748 165.953 72.4327 164.32C72.4853 163.82 71.6959 163.82 71.6433 164.32Z" fill="#E8E8E8"/>
<path d="M70.0646 164.715C70.5645 164.715 70.5645 163.925 70.0646 163.925C69.5646 163.925 69.5646 164.715 70.0646 164.715Z" fill="#E8E8E8"/>
<path d="M74.2746 168.165C74.7745 168.165 74.7745 167.375 74.2746 167.375C73.7746 167.375 73.7746 168.165 74.2746 168.165Z" fill="#E8E8E8"/>
<path d="M58.9606 188.652C60.9341 188.125 62.8812 187.441 64.7231 186.572C66.7228 185.624 68.4858 184.123 70.5382 183.306C72.3274 182.595 74.1167 182.174 75.7743 181.173C77.3268 180.225 78.695 178.988 79.8528 177.592C80.1685 177.197 79.616 176.644 79.3002 177.039C78.0898 178.514 76.6953 179.778 75.0376 180.726C73.3799 181.674 71.538 182.016 69.8277 182.806C68.0648 183.622 66.5123 184.86 64.7494 185.729C62.8286 186.677 60.8288 187.388 58.7501 187.941C58.2765 188.02 58.4607 188.784 58.9606 188.652Z" fill="#E8E8E8"/>
<path d="M249.858 90.692C248.358 92.114 247.884 93.8256 247.674 94.5893C245.806 101.594 245.779 105.649 245.779 105.649C245.727 114.023 244.701 111.838 244.28 123.714C244.122 128.27 244.095 133.879 244.411 140.278C243.385 141.805 241.938 144.254 240.833 147.493C239.517 151.285 238.622 153.839 239.754 156.42C241.201 159.764 245.122 161.002 246.095 161.318C248.095 161.95 248.937 161.608 253.699 162.345C255.331 162.608 256.647 162.872 257.541 163.056C256.778 164.636 255.647 166.953 254.884 168.533C253.2 172.009 251.516 175.485 249.832 178.961C251.463 179.909 253.805 181.252 256.673 182.78C262.777 186.045 265.83 187.678 269.171 188.81C271.329 189.547 276.223 191.022 282.591 191.206C286.932 191.338 290.063 190.811 294.957 189.995C299.852 189.179 303.851 188.178 306.64 187.388C307.166 184.649 307.851 181.173 308.745 177.197C308.982 176.117 310.14 171.088 311.982 164.188C313.192 159.712 314.744 154.234 316.744 147.941C314.271 147.546 311.797 147.124 309.324 146.729C311.14 143.622 312.718 141.147 313.797 139.435C315.008 137.539 317.323 133.984 319.375 129.165C320.191 127.243 320.691 125.742 320.139 124.162C319.428 122.16 317.402 121.239 316.955 121.028C315.165 120.212 313.56 120.449 311.298 120.712C308.587 121.028 305.825 121.081 303.114 121.449C300.141 121.844 295.852 122.081 290.248 121.212C289.958 116.446 289.906 112.549 289.932 109.81C289.984 104.306 290.274 101.331 288.353 99.9086C287.958 99.619 287.59 99.461 283.564 98.908C281.091 98.5656 279.854 98.4076 277.618 98.1706C275.092 97.9073 271.566 97.5386 267.724 96.4326C262.541 94.958 259.962 94.2206 257.567 91.9823C256.094 90.5866 255.147 89.0593 253.357 89.0066C251.726 88.9276 250.305 90.2706 249.858 90.692Z" fill="white"/>
<path opacity="0.2" d="M267.303 167.743C267.935 170.087 269.303 173.879 272.566 177.092C277.644 182.121 284.275 182.78 291.537 183.491C295.247 183.859 300.799 184.07 307.535 182.938C308.087 180.278 308.824 177.013 309.719 173.273C310.298 170.824 311.508 165.9 313.271 159.685C314.245 156.262 315.402 152.312 316.797 147.914C314.534 147.388 312.271 146.861 310.008 146.334C307.693 150.284 305.825 153.523 304.535 155.762C300.825 162.319 298.983 165.768 295.378 171.772C294.037 174.011 292.905 175.854 292.168 177.039C291.037 177.118 289.458 177.171 287.59 177.039C286.248 176.934 280.617 176.433 274.328 172.931C272.487 171.904 269.934 170.271 267.303 167.743Z" fill="#898989"/>
<path opacity="0.22" d="M289.116 123.24C290.537 124.346 292.51 126.137 294.3 128.823C294.668 129.376 296.773 132.615 297.72 137.065C299.141 143.727 297.168 149.363 295.668 153.55C292.063 163.53 285.88 170.561 281.249 174.827C282.143 175.485 283.459 176.275 285.143 176.802C288.195 177.776 290.853 177.408 292.221 177.118C298.931 165.874 304.456 156.604 309.14 148.968C311.219 145.571 314.666 139.988 317.981 131.904C319.139 129.112 319.954 126.742 320.481 125.162C320.033 124.03 319.06 122.029 317.007 121.054C315.534 120.343 314.113 120.449 313.429 120.501C305.219 121.239 301.115 121.607 300.404 121.713C297.405 122.134 292.931 122.266 287.116 120.607C287.827 121.476 288.458 122.345 289.116 123.24Z" fill="#898989"/>
<path opacity="0.18" d="M245.779 107.308C247.121 112.048 248.463 116.788 249.805 121.555C256.225 116.235 262.646 110.89 269.066 105.57C264.988 109.652 261.725 113.47 259.172 116.709C258.015 118.184 254.252 123.056 250.068 130.008C247.674 133.984 245.832 137.513 244.437 140.33C244.253 136.881 244.148 133.273 244.201 129.507C244.28 121.423 244.885 113.997 245.779 107.308Z" fill="#898989"/>
<path d="M251.831 128.191C254.121 124.425 256.594 120.765 259.251 117.236C261.909 113.707 264.698 109.942 267.908 106.913C272.066 103.016 276.091 108.046 278.644 111.206C281.17 114.339 283.59 117.552 286.195 120.607C289.063 123.925 292.168 127.032 295.773 129.56C296.194 129.85 296.589 129.165 296.168 128.875C288.906 123.819 283.906 116.393 278.354 109.626C276.249 107.045 272.908 103.358 269.198 105.017C267.408 105.807 266.093 107.651 264.83 109.073C263.251 110.89 261.699 112.733 260.225 114.629C256.936 118.816 253.91 123.214 251.121 127.769C250.884 128.217 251.568 128.612 251.831 128.191Z" fill="black"/>
<path d="M287.064 120.975C292.747 122.318 298.615 122.661 304.377 121.95C307.245 121.581 310.113 120.712 313.008 120.686C315.771 120.659 319.06 121.818 319.981 124.741C320.454 126.295 319.796 127.664 319.086 129.007C318.376 130.376 317.639 131.719 316.902 133.062C315.429 135.775 313.955 138.461 312.482 141.173C309.508 146.571 306.482 151.917 303.404 157.236C299.904 163.293 296.326 169.323 292.695 175.327C292.431 175.775 293.116 176.17 293.379 175.722C300.299 164.32 306.982 152.786 313.429 141.094C315.008 138.25 316.56 135.406 318.086 132.536C319.244 130.403 321.27 127.822 320.902 125.241C320.612 123.108 318.902 121.423 317.007 120.58C314.666 119.527 312.008 119.817 309.561 120.238C305.851 120.87 302.22 121.502 298.431 121.502C294.668 121.502 290.905 121.054 287.248 120.185C286.801 120.106 286.59 120.87 287.064 120.975Z" fill="black"/>
<path d="M252.226 125.715C248.569 131.535 245.201 137.539 242.201 143.727C239.885 148.52 236.491 155.103 241.491 159.396C246.069 163.319 252.7 161.976 258.094 163.635C264.146 165.479 269.066 169.639 274.434 172.799C279.959 176.065 286.722 178.593 293.063 176.249C293.537 176.065 293.326 175.301 292.852 175.485C281.091 179.778 271.224 168.402 261.435 164.057C259.041 162.977 256.541 162.292 253.936 162.003C250.884 161.634 247.727 161.66 244.859 160.502C241.964 159.343 239.701 157.052 239.649 153.787C239.596 150.548 241.306 147.44 242.675 144.596C245.727 138.25 249.147 132.088 252.91 126.137C253.173 125.689 252.489 125.268 252.226 125.715Z" fill="black"/>
<path d="M244.859 140.278C244.464 132.404 244.543 124.504 245.095 116.657C245.385 112.601 245.806 108.546 246.358 104.491C246.806 101.146 247.121 97.5913 248.174 94.3786C248.569 93.1673 249.147 91.877 250.121 90.9816C251.673 89.5333 253.621 89.9283 255.331 90.8763C258.357 92.509 261.277 94.168 264.488 95.4056C267.803 96.696 271.276 97.644 274.776 98.2496C277.96 98.8026 281.117 98.8553 284.327 99.0923C285.959 99.1976 287.958 99.5136 288.932 100.988C290.037 102.7 289.563 105.781 289.59 107.73C289.642 112.259 289.695 116.815 289.748 121.344C289.748 121.844 290.537 121.844 290.537 121.344C290.484 116.973 290.432 112.601 290.379 108.256C290.353 105.36 291.168 100.988 288.169 99.2503C285.59 97.7493 282.064 98.276 279.223 98.039C275.249 97.6966 271.303 96.8803 267.487 95.669C263.672 94.4313 260.041 92.7723 256.594 90.7446C254.199 89.349 251.463 88.3483 249.279 90.6656C247.279 92.7723 246.858 95.9586 246.385 98.6973C245.701 102.779 245.148 106.887 244.727 111.021C243.753 120.738 243.517 130.534 243.99 140.278C244.095 140.804 244.885 140.804 244.859 140.278Z" fill="black"/>
<path d="M257.041 163.662C255.752 166.163 254.436 168.639 253.147 171.14C252.489 172.378 251.858 173.642 251.2 174.88C250.647 175.933 249.884 177.013 249.542 178.145C249.384 178.698 249.411 179.172 249.858 179.567C250.7 180.357 252.094 180.805 253.094 181.331C255.515 182.595 257.936 183.886 260.357 185.15C264.83 187.493 269.434 189.705 274.407 190.759C279.407 191.812 284.564 191.812 289.642 191.233C295.457 190.574 301.167 189.179 306.824 187.783C307.324 187.651 307.114 186.888 306.614 187.019C297.352 189.31 287.748 191.654 278.144 190.574C268.382 189.468 259.725 183.965 251.2 179.435C251.279 179.462 250.542 179.146 250.489 179.04C250.2 178.645 250.542 177.961 250.7 177.592C250.989 176.881 251.437 176.17 251.805 175.485C252.463 174.248 253.094 172.984 253.752 171.746C255.094 169.165 256.436 166.611 257.752 164.03C257.962 163.609 257.278 163.214 257.041 163.662Z" fill="black"/>
<path d="M309.272 146.756C311.876 146.808 314.35 147.335 316.744 148.336C316.665 148.178 316.56 148.02 316.481 147.862C312.376 160.765 308.982 173.879 306.325 187.125C306.219 187.625 306.982 187.836 307.088 187.335C309.745 174.063 313.139 160.949 317.244 148.072C317.323 147.862 317.165 147.677 316.981 147.598C314.534 146.571 311.955 146.045 309.298 145.992C308.745 145.939 308.745 146.729 309.272 146.756Z" fill="black"/>
<path d="M189.681 167.506C182.919 176.486 176.13 185.439 169.342 194.366C151.975 217.224 134.504 239.976 116.927 262.675C118.138 262.886 119.953 263.386 121.9 264.545C123.637 265.572 124.874 266.783 125.61 267.652C150.897 234.92 176.183 202.161 201.496 169.429C197.549 168.77 193.628 168.138 189.681 167.506Z" fill="white" stroke="black" stroke-width="3" stroke-miterlimit="10"/>
<path d="M105.165 247.007C104.166 247.586 104.666 250.219 104.85 251.246C105.929 256.908 107.718 267.231 110.086 281.003C113.27 281.451 116.48 281.925 119.664 282.372C121.927 278.238 124.216 274.104 126.479 269.943C126.189 269.206 125.742 268.1 125.084 266.836C123.584 264.044 122.005 262.333 120.269 260.437C114.848 254.564 113.507 252.984 110.296 250.167C107.06 247.296 105.85 246.612 105.165 247.007Z" fill="white" stroke="black" stroke-width="3" stroke-miterlimit="10"/>
<path d="M106.165 249.614C109.849 253.643 111.244 259.383 113.033 264.387C115.085 270.075 117.111 275.736 119.164 281.424C119.322 281.898 120.085 281.688 119.927 281.214C117.769 275.21 115.612 269.206 113.454 263.175C111.717 258.33 110.296 252.932 106.744 249.034C106.402 248.666 105.823 249.219 106.165 249.614Z" fill="black"/>
<path d="M123.084 255.302C126.4 254.617 129.794 256.724 130.689 259.963C130.82 260.463 131.583 260.252 131.452 259.752C130.425 256.065 126.584 253.774 122.874 254.538C122.374 254.643 122.584 255.407 123.084 255.302Z" fill="black"/>
<path d="M128.847 248.007C132.031 247.507 135.135 249.745 135.741 252.905C135.846 253.406 136.609 253.195 136.504 252.695C135.82 249.087 132.241 246.664 128.636 247.244C128.136 247.323 128.347 248.086 128.847 248.007Z" fill="black"/>
<path d="M135.135 239.87C138.556 238.422 142.292 240.66 142.661 244.347C142.713 244.847 143.503 244.847 143.45 244.347C143.029 240.002 138.74 237.5 134.741 239.186C134.267 239.396 134.662 240.081 135.135 239.87Z" fill="black"/>
<path d="M140.056 233.182C141.95 232.576 143.792 232.339 145.397 233.761C146.608 234.841 147.134 236.394 147.371 237.974C147.45 238.475 148.213 238.264 148.134 237.764C147.871 235.894 147.134 234.051 145.555 232.892C143.766 231.549 141.871 231.786 139.845 232.418C139.372 232.576 139.582 233.34 140.056 233.182Z" fill="black"/>
<path d="M145.476 225.703C149.107 224.465 152.896 226.756 153.291 230.601C153.344 231.101 154.133 231.101 154.08 230.601C153.633 226.256 149.423 223.491 145.266 224.939C144.792 225.097 145.003 225.861 145.476 225.703Z" fill="black"/>
<path d="M151.791 217.777C155.37 216.855 158.764 219.146 159.317 222.78C159.396 223.28 160.159 223.07 160.08 222.569C159.475 218.488 155.554 215.986 151.581 217.013C151.107 217.145 151.318 217.908 151.791 217.777Z" fill="black"/>
<path d="M156.738 211.246C158.29 210.166 160.29 210.535 161.685 211.694C163.132 212.905 163.842 214.696 164.421 216.46C164.579 216.934 165.342 216.723 165.184 216.249C164.5 214.169 163.579 211.957 161.658 210.693C160.053 209.64 157.922 209.455 156.317 210.561C155.922 210.851 156.317 211.536 156.738 211.246Z" fill="black"/>
<path d="M162.132 204.952C163.579 204.057 165.368 204.715 166.763 205.426C168.289 206.216 169.236 207.533 169.578 209.192C169.684 209.692 170.447 209.482 170.342 208.981C169.921 206.98 168.658 205.453 166.816 204.584C165.211 203.82 163.342 203.267 161.711 204.268C161.316 204.531 161.711 205.216 162.132 204.952Z" fill="black"/>
<path d="M167.658 197.263C171.078 196.183 174.631 197.763 175.999 201.134C176.183 200.976 176.393 200.844 176.578 200.686C176.499 200.634 176.42 200.607 176.315 200.555C175.867 200.344 175.446 201.002 175.92 201.239C175.999 201.292 176.078 201.318 176.183 201.371C176.446 201.503 176.893 201.266 176.762 200.923C175.262 197.184 171.315 195.288 167.447 196.526C166.974 196.657 167.184 197.421 167.658 197.263Z" fill="black"/>
<path d="M173.315 189.679C177.104 188.915 180.525 191.654 180.682 195.499C180.709 195.999 181.498 195.999 181.472 195.499C181.288 191.101 177.42 188.073 173.104 188.915C172.605 189.021 172.815 189.784 173.315 189.679Z" fill="black"/>
<path d="M177.998 183.201C181.709 181.832 185.576 183.938 186.419 187.836C186.524 188.336 187.287 188.125 187.182 187.625C186.287 183.359 181.893 180.936 177.788 182.437C177.314 182.595 177.525 183.359 177.998 183.201Z" fill="black"/>
<path d="M182.893 177.671C186.55 176.433 190.234 178.54 190.997 182.332C191.102 182.832 191.865 182.622 191.76 182.121C190.918 177.934 186.708 175.538 182.682 176.907C182.208 177.065 182.419 177.829 182.893 177.671Z" fill="black"/>
<path d="M187.05 171.43C190.497 170.798 194.733 171.72 195.759 175.564C195.891 176.065 196.654 175.854 196.522 175.354C195.365 171.061 190.707 169.982 186.839 170.666C186.34 170.772 186.55 171.535 187.05 171.43Z" fill="black"/>
<path opacity="0.29" d="M195.97 168.507C186.734 180.989 177.446 193.418 168.079 205.795C153.317 225.308 138.372 244.689 123.295 263.939C119.269 257.856 115.112 254.09 112.086 251.747C111.717 251.483 106.534 247.507 105.876 248.192C105.376 248.718 107.665 251.668 109.56 253.985C112.086 260.305 114.533 266.915 116.875 273.761C117.848 276.632 118.795 279.502 119.69 282.32C122.742 276.316 125.768 270.312 128.82 264.334C134.057 257.461 141.95 247.112 147.213 240.239C165.29 216.592 183.366 192.971 201.496 169.376C199.627 169.113 197.812 168.823 195.97 168.507Z" fill="#828282"/>
<path d="M222.388 174.906C215.625 183.886 208.837 192.839 202.048 201.766C184.682 224.623 167.21 247.375 149.634 270.075C150.844 270.285 152.66 270.786 154.607 271.944C156.343 272.971 157.58 274.183 158.317 275.052C183.603 242.319 208.889 209.561 234.202 176.828C230.229 176.17 226.308 175.538 222.388 174.906Z" fill="white" stroke="black" stroke-width="3" stroke-miterlimit="10"/>
<path d="M137.846 254.406C136.846 254.986 137.346 257.619 137.53 258.646C138.609 264.308 140.398 274.63 142.766 288.403C145.95 288.85 149.16 289.324 152.344 289.772C154.607 285.638 156.896 281.503 159.159 277.343C158.869 276.605 158.422 275.499 157.764 274.235C156.264 271.444 154.686 269.732 152.949 267.836C147.529 261.964 146.187 260.384 142.977 257.566C139.74 254.67 138.53 254.011 137.846 254.406Z" fill="white" stroke="black" stroke-width="3" stroke-miterlimit="10"/>
<path d="M138.872 256.987C142.556 261.016 143.95 266.757 145.739 271.76C147.792 277.448 149.818 283.11 151.87 288.798C152.028 289.272 152.791 289.061 152.633 288.587C150.476 282.583 148.318 276.579 146.16 270.549C144.424 265.703 143.003 260.305 139.451 256.408C139.082 256.065 138.53 256.618 138.872 256.987Z" fill="black"/>
<path d="M155.764 262.701C159.08 262.017 162.474 264.123 163.369 267.362C163.5 267.863 164.263 267.652 164.132 267.152C163.106 263.465 159.264 261.174 155.554 261.938C155.054 262.043 155.264 262.78 155.764 262.701Z" fill="black"/>
<path d="M161.527 255.381C164.711 254.88 167.816 257.119 168.421 260.279C168.526 260.779 169.289 260.568 169.184 260.068C168.5 256.46 164.921 254.038 161.316 254.617C160.817 254.696 161.027 255.46 161.527 255.381Z" fill="black"/>
<path d="M167.816 247.27C171.236 245.822 174.973 248.06 175.341 251.747C175.394 252.247 176.183 252.247 176.13 251.747C175.709 247.402 171.42 244.9 167.421 246.585C166.947 246.796 167.342 247.481 167.816 247.27Z" fill="black"/>
<path d="M172.762 240.581C174.657 239.976 176.499 239.739 178.104 241.161C179.314 242.24 179.84 243.794 180.077 245.374C180.156 245.874 180.919 245.664 180.84 245.163C180.577 243.294 179.84 241.45 178.262 240.292C176.472 238.949 174.578 239.186 172.552 239.818C172.052 239.976 172.262 240.739 172.762 240.581Z" fill="black"/>
<path d="M178.156 233.076C181.788 231.839 185.577 234.13 185.971 237.974C186.024 238.475 186.813 238.475 186.761 237.974C186.313 233.629 182.103 230.864 177.946 232.313C177.472 232.497 177.683 233.261 178.156 233.076Z" fill="black"/>
<path d="M184.498 225.176C188.076 224.255 191.471 226.546 192.023 230.18C192.102 230.68 192.865 230.469 192.786 229.969C192.181 225.887 188.26 223.386 184.287 224.413C183.787 224.544 183.998 225.308 184.498 225.176Z" fill="black"/>
<path d="M189.418 218.646C190.971 217.566 192.97 217.935 194.365 219.093C195.812 220.305 196.523 222.095 197.101 223.86C197.259 224.334 198.022 224.123 197.864 223.649C197.18 221.569 196.259 219.357 194.339 218.093C192.734 217.039 190.602 216.855 188.997 217.961C188.602 218.251 188.997 218.935 189.418 218.646Z" fill="black"/>
<path d="M194.812 212.352C196.259 211.457 198.049 212.115 199.443 212.826C200.969 213.616 201.917 214.933 202.259 216.592C202.364 217.092 203.127 216.881 203.022 216.381C202.601 214.38 201.338 212.852 199.496 211.983C197.891 211.22 196.023 210.667 194.391 211.667C193.997 211.931 194.391 212.615 194.812 212.352Z" fill="black"/>
<path d="M200.338 204.663C203.759 203.583 207.311 205.163 208.679 208.534C208.863 208.376 209.074 208.244 209.258 208.086C209.179 208.033 209.1 208.007 208.995 207.954C208.547 207.744 208.126 208.402 208.6 208.639C208.679 208.692 208.758 208.718 208.863 208.771C209.126 208.902 209.574 208.665 209.442 208.323C207.942 204.584 203.995 202.688 200.127 203.925C199.654 204.057 199.864 204.821 200.338 204.663Z" fill="black"/>
<path d="M206.021 197.052C209.81 196.289 213.231 199.027 213.389 202.872C213.415 203.372 214.205 203.372 214.178 202.872C213.994 198.474 210.126 195.446 205.811 196.289C205.311 196.394 205.521 197.158 206.021 197.052Z" fill="black"/>
<path d="M210.679 190.574C214.389 189.205 218.257 191.312 219.099 195.209C219.204 195.709 219.967 195.499 219.862 194.998C218.967 190.732 214.573 188.31 210.468 189.811C209.995 189.995 210.205 190.759 210.679 190.574Z" fill="black"/>
<path d="M215.599 185.044C219.257 183.807 222.94 185.913 223.703 189.705C223.809 190.206 224.572 189.995 224.466 189.495C223.624 185.308 219.414 182.911 215.389 184.281C214.915 184.465 215.099 185.229 215.599 185.044Z" fill="black"/>
<path d="M219.73 178.83C223.177 178.198 227.413 179.119 228.44 182.964C228.571 183.464 229.334 183.254 229.203 182.753C228.045 178.461 223.388 177.381 219.52 178.066C219.02 178.145 219.23 178.909 219.73 178.83Z" fill="black"/>
<path opacity="0.29" d="M228.65 175.907C219.414 188.389 210.126 200.818 200.759 213.195C185.998 232.708 171.052 252.089 155.975 271.339C151.949 265.256 147.792 261.49 144.766 259.146C144.397 258.883 139.214 254.907 138.556 255.591C138.056 256.118 140.345 259.067 142.24 261.385C144.766 267.705 147.213 274.314 149.555 281.161C150.528 284.031 151.476 286.902 152.37 289.719C155.422 283.715 158.448 277.711 161.501 271.734C166.737 264.861 174.631 254.512 179.893 247.639C197.97 223.991 216.046 200.37 234.176 176.776C232.334 176.512 230.492 176.196 228.65 175.907Z" fill="#828282"/>
<path d="M178.13 102.41C175.946 105.254 173.341 109.073 170.973 113.892C170.21 115.445 167.789 120.475 165.947 127.48C164.895 131.456 163.869 136.67 163.553 142.885C166.526 143.332 169.5 143.754 172.473 144.201C173.236 138.592 174.657 131.798 177.262 124.372C179.34 118.447 181.735 113.365 184.05 109.152C182.077 106.913 180.104 104.675 178.13 102.41Z" fill="white" stroke="black" stroke-width="3" stroke-miterlimit="10"/>
<path d="M164.316 139.672C166.789 137.881 170.289 138.224 172.315 140.515C172.657 140.883 173.21 140.33 172.868 139.962C170.605 137.434 166.658 136.986 163.921 138.987C163.527 139.277 163.921 139.962 164.316 139.672Z" fill="black"/>
<path d="M164.79 134.01C167.395 131.087 172.078 132.088 173.183 135.88C173.315 136.354 174.078 136.17 173.946 135.669C172.657 131.324 167.263 130.06 164.237 133.457C163.895 133.826 164.448 134.379 164.79 134.01Z" fill="black"/>
<path d="M166 128.612C168.605 125.531 173.446 126.558 174.499 130.482C174.63 130.982 175.393 130.771 175.262 130.271C174.078 125.794 168.447 124.478 165.447 128.033C165.105 128.428 165.658 129.007 166 128.612Z" fill="black"/>
<path d="M167.5 123.767C168.657 122.345 170.578 121.871 172.289 122.503C174.025 123.135 175.209 124.688 175.972 126.295C176.183 126.742 176.867 126.347 176.657 125.9C175.762 123.977 174.262 122.213 172.157 121.634C170.263 121.107 168.184 121.66 166.947 123.214C166.631 123.582 167.184 124.162 167.5 123.767Z" fill="black"/>
<path d="M169.447 118.105C171.157 116.999 172.999 116.788 174.683 118.131C175.92 119.132 177.051 120.449 177.525 121.976C177.683 122.45 178.446 122.239 178.288 121.765C177.683 119.869 176.157 118.026 174.473 116.999C172.71 115.919 170.736 116.341 169.079 117.42C168.631 117.71 169.026 118.395 169.447 118.105Z" fill="black"/>
<path d="M171.947 113.023C173.736 112.338 175.525 111.969 177.078 113.391C178.104 114.339 179.209 115.761 179.498 117.157C179.709 117.025 179.946 116.894 180.156 116.762C180.077 116.709 179.998 116.63 179.919 116.578C179.525 116.262 178.972 116.815 179.367 117.131C179.446 117.183 179.525 117.262 179.604 117.315C179.919 117.552 180.34 117.341 180.261 116.92C179.893 115.235 178.498 113.391 177.13 112.391C175.42 111.127 173.578 111.548 171.736 112.233C171.262 112.443 171.473 113.207 171.947 113.023Z" fill="black"/>
<path d="M174.973 107.493C178.814 106.308 181.156 110.574 181.367 113.786C181.393 114.287 182.182 114.287 182.156 113.786C181.893 110.073 179.13 105.386 174.762 106.729C174.288 106.861 174.499 107.624 174.973 107.493Z" fill="black"/>
<path d="M233.728 107.572C233.728 107.572 238.017 134.511 238.175 135.617C238.359 136.749 236.018 177.092 236.018 177.092L249.279 164.61C247.2 142.174 245.122 119.711 243.043 97.2754C239.964 100.725 236.833 104.148 233.728 107.572Z" fill="black" stroke="black" stroke-width="3" stroke-miterlimit="10"/>
<path d="M177.814 101.278L196.338 94.9844L243.069 97.2754L233.728 107.572L177.814 101.278Z" fill="white" stroke="black" stroke-width="3" stroke-miterlimit="10"/>
<path d="M177.814 101.278L187.103 136.538C186.576 147.335 186.076 158.158 185.55 168.955C202.364 171.667 219.204 174.379 236.017 177.118C236.807 163.662 237.57 150.232 238.359 136.775L233.728 107.598L177.814 101.278Z" fill="white" stroke="black" stroke-width="3" stroke-miterlimit="10"/>
<path d="M214.994 112.917C214.81 114.971 214.994 116.973 215.599 118.948C215.757 119.422 216.52 119.237 216.362 118.737C215.783 116.815 215.599 114.892 215.783 112.917C215.836 112.417 215.046 112.417 214.994 112.917Z" fill="black"/>
<path d="M215.546 113.207C218.941 113.365 222.335 113.602 225.729 113.944C226.229 113.997 226.229 113.207 225.729 113.154C222.335 112.812 218.967 112.549 215.546 112.417C215.047 112.391 215.047 113.181 215.546 113.207Z" fill="black"/>
<path d="M216.125 119.553C219.309 119.975 222.519 120.159 225.729 120.106C226.229 120.106 226.229 119.316 225.729 119.316C222.519 119.369 219.309 119.185 216.125 118.763C215.625 118.684 215.625 119.474 216.125 119.553Z" fill="black"/>
<path d="M225.414 114.05C226.177 115.735 226.256 117.552 225.677 119.316C225.519 119.79 226.282 120.001 226.44 119.527C227.071 117.552 226.94 115.551 226.098 113.655C225.887 113.181 225.203 113.576 225.414 114.05Z" fill="black"/>
<path d="M226.492 115.472C227.045 115.445 227.571 115.84 227.729 116.393C227.834 116.815 227.492 117.684 226.966 117.289C226.571 116.973 226.177 117.657 226.571 117.973C227.466 118.632 228.545 117.631 228.571 116.709C228.597 115.603 227.598 114.682 226.519 114.708C225.992 114.708 225.966 115.498 226.492 115.472Z" fill="black"/>
<path d="M216.599 114.682C216.546 115.814 216.678 116.92 216.967 118.026C217.099 118.526 217.862 118.316 217.73 117.815C217.467 116.788 217.362 115.761 217.388 114.682C217.415 114.155 216.625 114.155 216.599 114.682Z" fill="black"/>
<path d="M217.125 114.761C217.757 114.787 218.388 114.84 219.02 114.919C218.914 114.787 218.836 114.655 218.73 114.55C218.651 115.682 218.678 116.815 218.783 117.973C218.836 118.474 219.625 118.474 219.572 117.973C219.441 116.841 219.441 115.709 219.52 114.55C219.52 114.392 219.388 114.181 219.23 114.181C218.52 114.076 217.836 113.997 217.125 113.971C216.625 113.971 216.625 114.761 217.125 114.761Z" fill="black"/>
<path d="M217.415 118.368C217.993 118.447 218.572 118.447 219.151 118.342C219.651 118.237 219.441 117.473 218.941 117.578C218.52 117.657 218.072 117.684 217.625 117.605C217.415 117.578 217.204 117.657 217.151 117.868C217.099 118.052 217.204 118.342 217.415 118.368Z" fill="black"/>
<path d="M220.072 114.497C219.888 115.735 219.941 116.973 220.23 118.21C220.362 118.711 221.125 118.5 220.993 118C220.73 116.92 220.651 115.814 220.835 114.708C220.914 114.208 220.151 113.997 220.072 114.497Z" fill="black"/>
<path d="M220.546 114.787C221.072 114.919 221.625 115.05 222.151 115.182C222.046 115.05 221.967 114.919 221.861 114.813C221.94 115.867 222.019 116.92 222.125 117.947C222.177 118.447 222.967 118.447 222.914 117.947C222.835 116.894 222.756 115.84 222.651 114.813C222.624 114.629 222.546 114.471 222.361 114.445C221.835 114.313 221.283 114.181 220.756 114.05C220.256 113.918 220.046 114.682 220.546 114.787Z" fill="black"/>
<path d="M220.73 118.421C221.362 118.737 222.072 118.711 222.651 118.342C223.098 118.079 222.677 117.394 222.256 117.657C221.914 117.868 221.493 117.894 221.125 117.736C220.677 117.526 220.283 118.21 220.73 118.421Z" fill="black"/>
<path d="M223.072 114.734C222.993 115.709 222.94 116.762 223.177 117.71C223.361 118.526 224.177 118.474 224.861 118.316C225.361 118.184 225.15 117.42 224.651 117.552C224.44 117.605 224.256 117.631 224.045 117.631C223.914 117.684 223.861 117.605 223.914 117.394C223.835 117.131 223.835 116.788 223.835 116.499C223.809 115.919 223.809 115.34 223.861 114.734C223.914 114.234 223.124 114.234 223.072 114.734Z" fill="black"/>
<path d="M223.545 114.971C223.809 115.024 224.124 115.05 224.387 115.129C224.387 115.129 224.624 115.208 224.572 115.156C224.651 115.235 224.572 115.682 224.572 115.788C224.572 116.499 224.598 117.21 224.598 117.894C224.598 118.395 225.387 118.395 225.387 117.894C225.387 117.394 225.361 116.894 225.361 116.393C225.361 115.946 225.414 115.419 225.335 114.971C225.203 114.26 224.335 114.287 223.756 114.181C223.256 114.102 223.046 114.866 223.545 114.971Z" fill="black"/>
<path d="M181.209 106.281C184.103 115.498 186.682 124.82 188.997 134.221C189.129 134.721 189.892 134.511 189.76 134.01C187.445 124.636 184.866 115.314 181.972 106.071C181.814 105.597 181.051 105.807 181.209 106.281Z" fill="black"/>
<path d="M189.602 137.039C189.102 146.598 188.418 156.13 187.497 165.663C187.445 166.163 188.234 166.163 188.287 165.663C189.181 156.13 189.892 146.598 190.392 137.039C190.418 136.538 189.629 136.538 189.602 137.039Z" fill="black"/>
<path d="M188.05 166.453C203.153 167.954 218.151 170.35 232.965 173.616C233.465 173.721 233.676 172.957 233.176 172.852C218.283 169.587 203.206 167.19 188.05 165.663C187.55 165.61 187.55 166.4 188.05 166.453Z" fill="black"/>
<path d="M181.708 106.334C192.365 108.098 203.048 109.547 213.783 110.679C214.283 110.732 214.283 109.942 213.783 109.889C203.127 108.757 192.497 107.335 181.919 105.57C181.419 105.491 181.209 106.255 181.708 106.334Z" fill="black"/>
<path d="M190.418 164.399C190.365 164.241 190.286 164.057 190.234 163.899C190.234 163.978 190.234 164.03 190.234 164.109C190.339 163.82 190.786 163.872 190.813 164.162C190.865 164.452 190.471 164.531 190.365 164.32C190.129 163.872 189.444 164.267 189.681 164.715C189.944 165.163 190.523 165.347 190.997 165.163C191.523 164.952 191.734 164.346 191.549 163.846C191.339 163.293 190.786 163.03 190.234 163.188C189.971 163.267 189.76 163.425 189.602 163.662C189.497 163.793 189.444 163.951 189.471 164.136C189.497 164.294 189.602 164.478 189.655 164.636C189.839 165.084 190.602 164.873 190.418 164.399Z" fill="black"/>
<path d="M184.392 108.967C184.419 108.994 184.419 108.915 184.392 108.967C184.392 108.915 184.392 108.941 184.392 108.915C184.419 108.862 184.445 108.836 184.471 108.836C184.471 108.836 184.524 108.809 184.498 108.836C184.498 108.836 184.498 108.836 184.471 108.836C184.524 108.862 184.524 108.862 184.498 108.836C184.55 108.862 184.577 108.888 184.603 108.941C184.577 108.888 184.629 108.994 184.629 109.02C184.629 108.994 184.603 109.046 184.629 109.02C184.656 108.967 184.577 109.073 184.629 109.02C184.577 109.073 184.629 109.02 184.577 109.046C184.629 109.02 184.524 109.046 184.524 109.046C184.603 109.046 184.471 109.046 184.471 109.046C184.524 109.046 184.445 109.02 184.445 109.046C184.419 109.02 184.419 109.02 184.445 109.046C184.419 109.02 184.419 109.02 184.392 108.994C184.261 108.836 183.972 108.862 183.84 108.994C183.682 109.152 183.708 109.389 183.84 109.547C184.103 109.889 184.656 109.942 185.024 109.705C185.445 109.441 185.524 108.915 185.287 108.493C185.024 108.072 184.498 107.914 184.077 108.177C183.656 108.441 183.524 108.967 183.735 109.389C183.84 109.573 184.103 109.626 184.287 109.52C184.445 109.389 184.498 109.152 184.392 108.967Z" fill="black"/>
<path d="M232.623 125.584C233.465 129.007 234.228 132.43 234.912 135.88C235.018 136.38 235.781 136.17 235.675 135.669C234.991 132.22 234.228 128.796 233.386 125.373C233.281 124.873 232.518 125.083 232.623 125.584Z" fill="black"/>
<path d="M235.149 136.038C235.044 139.909 234.781 143.806 234.36 147.651C234.307 148.151 235.097 148.151 235.149 147.651C235.544 143.78 235.807 139.909 235.939 136.038C235.939 135.538 235.149 135.538 235.149 136.038Z" fill="black"/>
<path d="M147.607 126.321C147.844 126.374 149.739 126.716 151.186 125.399C152.028 124.636 152.291 123.714 152.396 123.319C152.896 123.898 153.449 124.478 154.133 125.057C157.317 127.743 160.343 127.295 163.29 128.691C164.921 129.455 167.105 131.061 169 134.748C170.157 133.958 171.894 132.878 174.183 131.983C178.919 130.113 182.524 130.35 185.445 130.034C189.023 129.665 193.944 128.191 199.759 123.345C200.706 130.139 201.522 137.223 202.18 144.596C203.337 157.947 203.785 170.561 203.732 182.279C184.998 163.609 166.289 144.965 147.607 126.321Z" fill="white" stroke="black" stroke-width="3" stroke-miterlimit="10"/>
<path d="M147.607 126.321C149.949 142.068 152.317 157.842 154.659 173.589C158.974 179.304 163.263 185.044 167.579 190.759C168.263 191.233 169.289 191.786 170.605 192.075C173.999 192.786 176.735 191.075 177.42 190.627C188.102 188.231 198.785 185.834 209.468 183.464C207.258 164.399 205.048 145.307 202.837 126.242C192.97 129.613 183.077 132.983 173.21 136.38C172.999 136.538 170.894 138.066 168.394 137.276C166.684 136.749 165.816 135.459 165.579 135.064C159.58 132.114 153.58 129.218 147.607 126.321Z" fill="#F8D72F"/>
<path d="M164.842 137.434C165.868 154.419 167.237 171.404 168.947 188.336C169 188.836 169.789 188.836 169.736 188.336C168.026 171.404 166.658 154.419 165.632 137.434C165.605 136.933 164.816 136.907 164.842 137.434Z" fill="black"/>
<path d="M172.394 145.65C173.104 156.789 173.552 167.954 173.762 179.119C173.762 179.62 174.552 179.62 174.552 179.119C174.341 167.954 173.894 156.789 173.183 145.65C173.157 145.149 172.368 145.149 172.394 145.65Z" fill="black"/>
<path d="M180.84 141.12C180.945 142.305 181.051 143.464 181.156 144.649C181.209 145.255 181.182 145.966 181.419 146.545C182.051 148.046 183.945 147.151 185.077 146.835C188.997 145.755 192.865 144.57 196.47 142.674C196.917 142.437 196.522 141.752 196.075 141.989C193.312 143.438 190.365 144.465 187.366 145.36C186.682 145.571 185.997 145.755 185.313 145.939C184.708 146.097 183.892 146.519 183.261 146.492C181.445 146.44 181.735 142.332 181.63 141.094C181.577 140.62 180.788 140.62 180.84 141.12Z" fill="black"/>
<path d="M181.603 141.094C183.945 140.383 186.287 139.672 188.602 138.961C190.918 138.25 193.339 137.249 195.786 137.144C195.654 137.012 195.523 136.881 195.391 136.749C195.365 138.777 195.601 140.778 196.101 142.753C196.233 143.253 196.996 143.043 196.864 142.542C196.365 140.646 196.154 138.724 196.18 136.749C196.18 136.538 195.996 136.354 195.786 136.354C193.418 136.459 191.128 137.381 188.892 138.039C186.392 138.803 183.892 139.567 181.393 140.33C180.919 140.488 181.103 141.252 181.603 141.094Z" fill="black"/>
<path d="M149.581 148.125C149.555 148.494 149.502 149.099 149.66 151.022C149.686 151.469 149.792 152.496 150.028 154.55C150.239 156.157 150.318 156.973 150.502 157.921C150.739 159.159 150.976 160.159 151.16 160.844C150.528 161.529 150.555 162.529 151.081 163.003C151.502 163.398 152.212 163.477 152.66 163.161C152.923 162.977 153.081 162.635 153.133 161.476C153.238 159.264 152.712 158.974 152.975 157.605C153.16 156.631 153.475 156.367 153.396 155.498C153.37 155.34 153.344 155.024 152.87 153.918C152.054 151.943 151.791 151.97 151.712 151.232C151.633 150.442 151.923 150.337 151.844 149.073C151.818 148.336 151.686 147.809 151.66 147.677C151.476 146.914 150.949 145.386 150.449 145.413C149.844 145.465 149.607 147.888 149.581 148.125Z" fill="white"/>
<path d="M149.765 145.228C149.186 146.361 148.976 147.651 149.318 148.915C149.528 149.758 150.134 150.89 151.186 150.706C152.081 150.548 152.265 149.521 152.239 148.783C152.186 147.546 151.633 146.413 150.791 145.492C150.449 145.123 149.897 145.676 150.239 146.045C150.686 146.519 151.028 147.072 151.239 147.677C151.344 148.02 151.423 148.415 151.449 148.783C151.476 149.336 151.581 149.494 150.897 149.494C150.265 149.468 150.265 149.284 150.081 148.704C150.002 148.388 149.949 148.046 149.949 147.704C149.923 146.966 150.107 146.282 150.449 145.623C150.686 145.176 150.002 144.781 149.765 145.228Z" fill="black"/>
<path d="M149.37 148.704C149.107 150.548 149.265 152.338 150.002 154.05C150.449 155.103 151.239 156.499 152.502 156.71C153.449 156.868 153.896 156.262 153.765 155.393C153.502 153.523 152.16 151.996 151.87 150.1C151.791 149.6 151.028 149.81 151.107 150.311C151.239 151.153 151.502 151.917 151.844 152.681C152.002 153.049 153.659 156.025 152.133 155.709C151.212 155.525 150.502 153.26 150.318 152.575C149.976 151.364 149.949 150.126 150.134 148.889C150.212 148.415 149.449 148.204 149.37 148.704Z" fill="black"/>
<path d="M149.528 152.918C149.528 154.603 149.818 157.421 151.291 158.527C151.765 158.895 152.396 158.869 152.87 158.474C153.475 157.947 153.449 157.131 153.37 156.394C153.317 155.893 152.528 155.893 152.581 156.394C152.607 156.604 152.633 156.815 152.633 157.026C151.975 157.789 151.528 157.868 151.318 157.289C151.002 157.026 150.87 156.315 150.765 155.92C150.449 154.945 150.318 153.945 150.344 152.918C150.318 152.391 149.528 152.391 149.528 152.918Z" fill="black"/>
<path d="M150.16 155.709C149.976 157.052 150.055 158.395 150.476 159.685C150.739 160.528 151.212 162.055 152.186 162.345C154.265 162.951 153.659 158.974 153.449 158.026C153.344 157.526 152.581 157.737 152.686 158.237C152.844 158.974 152.923 159.712 152.896 160.449C152.896 160.712 152.87 160.976 152.791 161.265C152.502 161.213 152.212 161.16 151.923 161.107C151.633 160.897 151.476 160.212 151.37 159.896C150.87 158.553 150.765 157.157 150.949 155.735C151.028 155.209 150.239 155.209 150.16 155.709Z" fill="black"/>
<path d="M150.818 160.712C150.712 161.608 150.712 163.082 151.633 163.609C152.581 164.136 153.186 163.24 153.317 162.424C153.396 161.924 152.633 161.713 152.554 162.213C152.528 162.398 152.502 162.714 152.37 162.845C152.081 163.135 151.791 162.74 151.712 162.45C151.528 161.897 151.528 161.265 151.607 160.686C151.66 160.212 150.87 160.212 150.818 160.712Z" fill="black"/>
<path d="M215.362 162.055C215.02 161.134 214.494 159.896 213.784 158.421C213.494 157.842 212.81 156.446 211.784 154.761C209.942 151.759 209.153 151.311 208.574 151.101C208.468 151.074 206.969 150.548 206.442 151.153C205.6 152.128 207.968 155.314 208.232 155.683C207.521 155.814 206.416 156.025 205.074 156.236C200.338 156.973 198.443 156.868 195.102 157.473C191.418 158.132 189.76 157.974 189.418 158.948C189.129 159.738 189.839 160.607 189.918 160.739C190.734 161.739 192.391 162.029 193.997 161.318C194.917 161.265 195.838 161.239 196.759 161.186C196.654 161.845 196.575 162.793 196.838 163.899C197.049 164.794 197.312 164.899 197.917 166.374C198.628 168.138 198.496 168.507 199.075 169.323C199.733 170.245 200.548 170.719 200.969 170.93C202.943 172.036 205.048 171.641 209.074 171.114C210.468 170.93 212.705 170.64 215.546 170.35C215.494 167.585 215.415 164.82 215.362 162.055Z" fill="white"/>
<path d="M239.333 106.387C238.201 108.862 239.78 111.706 240.754 113.76C240.859 113.971 242.254 120.712 245.043 134.247C245.885 138.276 247.042 144.149 248.305 151.443C245.964 152.865 243.385 154.234 240.517 155.551C231.097 159.817 222.256 161.502 215.336 162.108C214.994 162.793 214.231 164.557 214.52 166.822C214.888 169.718 216.678 171.483 217.178 171.93C219.993 171.114 224.019 169.929 228.834 168.454C251.016 161.66 255.804 159.211 257.278 154.945C257.857 153.234 257.436 152.654 256.173 146.071C253.463 131.904 253.91 126.637 250.305 113.786C248.332 106.755 246.911 103.78 244.569 103.332C242.675 102.937 240.227 104.412 239.333 106.387Z" fill="white" stroke="black" stroke-width="3" stroke-miterlimit="10"/>
<path d="M219.598 161.713C218.809 164.768 219.441 167.98 221.335 170.482C221.651 170.877 222.335 170.482 222.019 170.087C220.23 167.717 219.625 164.794 220.362 161.924C220.493 161.45 219.73 161.239 219.598 161.713Z" fill="black"/>
<path d="M215.731 161.95C214.889 159.738 213.889 157.605 212.705 155.551C211.731 153.866 210.626 152.154 209.047 150.943C208.231 150.337 206.89 149.415 206.205 150.679C205.442 152.128 207.153 154.682 207.916 155.867C208.179 156.288 208.863 155.893 208.6 155.472C208.284 154.972 205.863 150.916 207.547 150.916C208.1 150.916 208.889 151.812 209.284 152.154C209.863 152.707 210.363 153.313 210.81 153.971C212.573 156.473 213.889 159.317 214.994 162.161C215.152 162.635 215.915 162.424 215.731 161.95Z" fill="black"/>
<path d="M207.889 155.709C204.627 155.814 201.364 156.104 198.101 156.578C196.496 156.815 194.917 157.105 193.312 157.421C192.102 157.684 190.418 157.789 189.365 158.5C188.813 158.895 188.444 159.58 188.708 160.265C189.076 161.107 190.365 161.292 191.155 161.45C194.233 162.029 197.549 161.766 200.653 161.818C201.153 161.818 201.153 161.028 200.653 161.028C198.285 161.002 195.917 161.002 193.549 160.897C192.812 160.87 192.076 160.818 191.339 160.686C191.049 160.633 190.234 160.581 189.997 160.344C188.497 158.843 192.312 158.421 192.97 158.29C197.864 157.236 202.837 156.657 207.811 156.499C208.389 156.473 208.389 155.683 207.889 155.709Z" fill="black"/>
<path d="M196.128 161.766C195.707 163.056 196.391 164.32 197.522 164.978C199.206 165.926 201.469 165.426 203.285 165.294C203.785 165.242 203.785 164.452 203.285 164.504C202.127 164.583 200.943 164.768 199.785 164.715C198.312 164.662 196.286 163.846 196.865 161.976C197.049 161.476 196.286 161.265 196.128 161.766Z" fill="black"/>
<path d="M196.943 164.899C197.312 168.033 200.732 168.191 203.179 167.849C203.679 167.77 203.469 167.006 202.969 167.085C201.101 167.348 198.022 167.427 197.733 164.899C197.68 164.399 196.891 164.399 196.943 164.899Z" fill="black"/>
<path d="M198.101 167.401C198.259 170.192 200.838 171.72 203.416 171.904C205.39 172.062 207.39 171.693 209.31 171.456C211.389 171.219 213.494 170.982 215.573 170.719C216.073 170.666 216.073 169.876 215.573 169.929C212.494 170.298 209.416 170.693 206.337 171.009C203.574 171.298 199.127 171.088 198.891 167.375C198.838 166.901 198.049 166.901 198.101 167.401Z" fill="black"/>
<path d="M225.913 161.107C225.65 163.793 226.203 166.4 227.519 168.77C227.755 169.218 228.439 168.823 228.203 168.375C226.966 166.111 226.466 163.688 226.703 161.107C226.755 160.581 225.966 160.607 225.913 161.107Z" fill="black"/>
<path d="M232.386 158.632C232.413 161.423 233.044 164.109 234.228 166.637C234.439 167.085 235.123 166.69 234.912 166.242C233.781 163.82 233.228 161.292 233.176 158.632C233.149 158.105 232.36 158.105 232.386 158.632Z" fill="black"/>
<path d="M237.859 156.894C238.78 159.369 239.517 161.897 240.07 164.478C240.175 164.978 240.938 164.768 240.833 164.267C240.28 161.687 239.543 159.159 238.622 156.683C238.465 156.209 237.701 156.42 237.859 156.894Z" fill="black"/>
<path d="M243.911 154.234C245.437 156.71 246.279 159.475 246.385 162.398C246.411 162.898 247.2 162.898 247.174 162.398C247.069 159.343 246.2 156.446 244.595 153.839C244.306 153.418 243.622 153.813 243.911 154.234Z" fill="black"/>
<path d="M248.358 152.101C249.884 152.075 251.252 152.575 252.489 153.444C253.094 153.866 253.647 154.366 254.173 154.866C254.436 155.13 254.699 155.419 254.962 155.709C255.41 156.209 255.357 156.051 255.989 156.288C255.515 156.104 255.305 156.868 255.778 157.052C255.831 157.078 255.857 157.078 255.91 157.105C256.041 157.157 256.199 157.105 256.304 156.999C256.594 156.683 256.541 156.446 256.357 156.104C255.805 155.156 254.726 154.208 253.884 153.497C252.305 152.154 250.437 151.259 248.358 151.285C247.832 151.311 247.832 152.101 248.358 152.101Z" fill="black"/>
<path d="M248.279 147.625C249.832 145.834 252.91 143.648 255.436 144.491C255.91 144.649 256.12 143.885 255.647 143.727C252.857 142.779 249.463 145.044 247.727 147.045C247.384 147.467 247.937 148.02 248.279 147.625Z" fill="black"/>
<path d="M247.253 142.305C248.621 139.356 252.042 139.172 254.884 139.119C255.384 139.119 255.384 138.329 254.884 138.329C251.779 138.382 248.069 138.724 246.595 141.91C246.358 142.384 247.042 142.779 247.253 142.305Z" fill="black"/>
<path d="M245.937 135.696C246.937 132.799 250.621 131.456 253.41 131.43C253.91 131.43 253.91 130.64 253.41 130.64C250.226 130.666 246.279 132.22 245.174 135.485C245.016 135.959 245.779 136.17 245.937 135.696Z" fill="black"/>
<path d="M244.595 128.691C244.99 127.137 246.279 126.137 247.516 125.162C249.016 123.977 250.463 123.108 252.41 123.082C252.91 123.082 252.91 122.292 252.41 122.292C250.41 122.318 248.884 123.135 247.306 124.32C245.858 125.426 244.332 126.611 243.832 128.454C243.701 128.954 244.464 129.165 244.595 128.691Z" fill="black"/>
<path d="M243.148 121.897C244.727 119.079 247.569 117.21 250.805 116.946C251.305 116.894 251.305 116.104 250.805 116.156C247.305 116.446 244.201 118.395 242.464 121.476C242.227 121.95 242.911 122.345 243.148 121.897Z" fill="black"/>
<path d="M242.096 115.261C242.911 114.181 243.911 113.312 245.095 112.654C245.648 112.338 246.253 112.101 246.858 111.917C247.121 111.838 247.384 111.759 247.648 111.706C247.832 111.653 248.016 111.627 248.2 111.627C248.542 111.653 248.779 111.495 248.858 111.127C248.49 111.469 249.042 112.022 249.411 111.68C249.437 111.653 249.463 111.627 249.489 111.601C249.595 111.495 249.621 111.337 249.595 111.206C249.595 111.153 249.568 111.127 249.568 111.074C249.542 110.942 249.411 110.837 249.305 110.811C247.99 110.521 246.279 111.179 245.095 111.759C243.622 112.47 242.438 113.523 241.438 114.813C241.096 115.261 241.78 115.656 242.096 115.261Z" fill="black"/>
<path opacity="0.28" d="M244.648 103.306C245.358 105.86 246.279 109.415 247.2 113.681C248.805 121.133 248.648 122.608 250.595 136.565C252.2 147.862 252.831 150.679 250.753 153.787C249.832 155.182 247.727 156.394 243.622 158.816C238.07 162.055 234.123 164.373 228.203 166.295C225.045 167.322 220.598 168.454 215.099 168.955C214.073 169.113 212.757 169.271 211.205 169.402C208.363 169.639 205.969 169.613 204.179 169.56C202.706 169.508 200.943 169.376 198.917 169.113C199.469 169.745 200.39 170.64 201.706 171.246C203.995 172.325 206.205 172.036 210.047 171.509C211.442 171.298 213.336 170.982 215.546 170.403C216.099 170.93 216.651 171.456 217.23 171.957C220.73 170.903 225.913 169.35 232.281 167.427C266.514 157.078 240.149 164.662 244.569 163.372C246.306 162.872 249.832 161.845 253.594 159.317C255.594 157.974 256.857 156.71 257.357 154.972C257.752 153.576 257.462 152.444 257.12 150.916C256.515 148.125 256.304 145.281 255.594 142.516C254.436 137.96 255.147 138.329 253.489 128.401C251.568 116.762 251.174 119.685 250.068 112.733C249.911 111.759 249.595 109.652 248.253 107.387C247.095 105.36 245.674 104.069 244.648 103.306Z" fill="#828282"/>
<path d="M204.285 90.929C204.732 92.2193 205.232 93.5624 205.758 94.9317C206.627 97.17 207.547 99.303 208.495 101.304C209.626 101.094 210.994 100.751 212.468 100.172C213.626 99.698 214.599 99.1977 215.415 98.6974C214.81 95.353 214.204 92.035 213.599 88.6907C210.494 89.428 207.39 90.1653 204.285 90.929Z" fill="white" stroke="black" stroke-width="2" stroke-miterlimit="10"/>
<path d="M207.442 98.8553C210.468 99.935 213.389 98.434 215.231 96.0376C215.546 95.6426 214.994 95.0896 214.678 95.4846C212.994 97.6703 210.442 99.1186 207.653 98.118C207.153 97.9073 206.969 98.671 207.442 98.8553Z" fill="black"/>
<path d="M206.074 96.0113C209.152 96.459 213.047 96.7223 214.757 93.5096C214.994 93.062 214.31 92.667 214.073 93.1146C212.547 95.985 209.021 95.6426 206.284 95.2476C205.784 95.1686 205.574 95.9323 206.074 96.0113Z" fill="black"/>
<path d="M204.732 92.9566C207.916 93.8783 211.337 93.2463 213.968 91.2449C214.363 90.9289 213.968 90.2442 213.573 90.5602C211.073 92.4562 207.942 93.0619 204.943 92.1929C204.469 92.0612 204.258 92.8249 204.732 92.9566Z" fill="black"/>
<path d="M220.178 59.5397H233.281L236.07 84.2667L223.177 90.929L220.178 59.5397Z" fill="black" stroke="black" stroke-width="3" stroke-miterlimit="10"/>
<path d="M175.92 64.464L180.209 90.929H223.177L220.178 59.5397L175.92 64.464Z" fill="white" stroke="black" stroke-width="3" stroke-miterlimit="10"/>
<path d="M177.814 66.439L181.682 89.3753H220.178L217.467 62.1467L177.814 66.439Z" fill="white" stroke="black" stroke-width="3" stroke-miterlimit="10"/>
<path d="M188.023 78.0976C188.514 77.814 188.5 76.8694 187.991 75.9878C187.482 75.1062 186.672 74.6214 186.181 74.905C185.691 75.1886 185.705 76.1332 186.214 77.0148C186.722 77.8964 187.532 78.3812 188.023 78.0976Z" fill="black" stroke="black" stroke-width="3" stroke-miterlimit="10"/>
<path d="M206.098 76.826C206.589 76.5424 206.575 75.5977 206.066 74.7161C205.557 73.8345 204.747 73.3497 204.256 73.6333C203.766 73.9169 203.78 74.8615 204.289 75.7431C204.797 76.6247 205.607 77.1096 206.098 76.826Z" fill="black" stroke="black" stroke-width="3" stroke-miterlimit="10"/>
<path d="M194.286 80.975C194.944 81.8703 195.654 82.7393 196.391 83.5556C196.601 83.7926 196.97 83.6346 197.049 83.3713C197.417 82.2653 197.864 81.1856 198.391 80.1586C198.601 79.711 197.943 79.2896 197.707 79.7636C197.18 80.8696 196.707 82.002 196.286 83.187C196.496 83.1343 196.733 83.0816 196.944 83.0026C196.233 82.239 195.575 81.4226 194.944 80.58C194.654 80.185 193.97 80.58 194.286 80.975Z" fill="black"/>
</svg>
