<svg width="22" height="14" viewBox="0 0 22 14" fill="none" xmlns="http://www.w3.org/2000/svg">
<path fill-rule="evenodd" clip-rule="evenodd" d="M3 1.25C3 1.94036 2.44036 2.5 1.75 2.5C1.05964 2.5 0.5 1.94036 0.5 1.25C0.5 0.559644 1.05964 0 1.75 0C2.44036 0 3 0.559644 3 1.25ZM5.75 0.5C5.33579 0.5 5 0.835786 5 1.25C5 1.66421 5.33579 2 5.75 2H20.75C21.1642 2 21.5 1.66421 21.5 1.25C21.5 0.835786 21.1642 0.5 20.75 0.5H5.75ZM1.75 8C2.44036 8 3 7.44036 3 6.75C3 6.05964 2.44036 5.5 1.75 5.5C1.05964 5.5 0.5 6.05964 0.5 6.75C0.5 7.44036 1.05964 8 1.75 8ZM5.75 6C5.33579 6 5 6.33579 5 6.75C5 7.16421 5.33579 7.5 5.75 7.5H20.75C21.1642 7.5 21.5 7.16421 21.5 6.75C21.5 6.33579 21.1642 6 20.75 6H5.75ZM5 12.25C5 11.8358 5.33579 11.5 5.75 11.5H20.75C21.1642 11.5 21.5 11.8358 21.5 12.25C21.5 12.6642 21.1642 13 20.75 13H5.75C5.33579 13 5 12.6642 5 12.25ZM3 12.25C3 12.9404 2.44036 13.5 1.75 13.5C1.05964 13.5 0.5 12.9404 0.5 12.25C0.5 11.5596 1.05964 11 1.75 11C2.44036 11 3 11.5596 3 12.25Z" fill="#7E5DD7"/>
</svg>
