<svg width="263" height="87" preserveAspectRatio="none" viewBox="0 0 263 87" fill="none" xmlns="http://www.w3.org/2000/svg">
<path d="M263 12.8C263 8.31958 263 6.07937 262.128 4.36808C261.361 2.86278 260.137 1.63893 258.632 0.871948C256.921 0 254.68 0 250.2 0H19.8C15.3196 0 13.0794 0 11.3681 0.871948C9.86278 1.63893 8.63893 2.86278 7.87195 4.36808C7 6.07937 7 8.31958 7 12.8V74.2C7 78.6804 7 80.9206 7.87195 82.6319C8.63893 84.1372 9.86278 85.3611 11.3681 86.1281C13.0794 87 15.3196 87 19.8 87H250.2C254.68 87 256.921 87 258.632 86.1281C260.137 85.3611 261.361 84.1372 262.128 82.6319C263 80.9206 263 78.6804 263 74.2V12.8Z" fill="black" fill-opacity="0.08"/>
<path d="M1 84.5254C2.78037 83.3559 8.28332 80.4322 7.31221 74L12.6533 85.6949L1 84.5254Z" fill="#EBEBEB" stroke="#EBEBEB" stroke-width="0.5"/>
</svg>
