<svg width="243" height="92" preserveAspectRatio="none" viewBox="0 0 243 92" fill="none" xmlns="http://www.w3.org/2000/svg">
<path d="M0 12.8C0 8.31958 0 6.07937 0.871948 4.36808C1.63893 2.86278 2.86278 1.63893 4.36808 0.871948C6.07937 0 8.31958 0 12.8 0H225.2C229.68 0 231.921 0 233.632 0.871948C235.137 1.63893 236.361 2.86278 237.128 4.36808C238 6.07937 238 8.31958 238 12.8V79.2C238 83.6804 238 85.9206 237.128 87.6319C236.361 89.1372 235.137 90.3611 233.632 91.1281C231.921 92 229.68 92 225.2 92H12.8C8.31958 92 6.07937 92 4.36808 91.1281C2.86278 90.3611 1.63893 89.1372 0.871948 87.6319C0 85.9206 0 83.6804 0 79.2V12.8Z" fill="black" fill-opacity="0.08"/>
<path d="M241.589 90.0339C239.938 88.4746 234.834 84.5763 235.734 76L230.781 91.5932L241.589 90.0339Z" fill="#EBEBEB" stroke="#EBEBEB" stroke-width="0.5"/>
</svg>
