<svg xmlns="http://www.w3.org/2000/svg" width="31" height="30" viewBox="0 0 31 30">
    <g fill="none" fill-rule="evenodd">
        <g fill="#F5C518" fill-rule="nonzero">
            <g>
                <g>
                    <g>
                        <path d="M16.613 14.2c1.409.883 2.545 2.147 2.814 3.559L20.045 21c.507 2.665-1.281 4.826-3.995 4.826H4.255C1.541 25.826-.248 23.665.26 21l.618-3.241c.269-1.411 1.405-2.676 2.814-3.558 1.556 2.126 3.872 3.48 6.46 3.48 2.587 0 4.904-1.354 6.46-3.48zM10.15 0c3.595 0 6.51 3.518 6.51 7.858s-2.915 7.858-6.51 7.858c-3.595 0-6.51-3.518-6.51-7.858S6.557 0 10.152 0z" transform="translate(-1500 -33) translate(390.203) translate(1110.701 33) translate(4.002)"/>
                    </g>
                </g>
            </g>
        </g>
    </g>
</svg>
