<svg width="271" height="183" preserveAspectRatio="none" viewBox="0 0 271 183" fill="none" xmlns="http://www.w3.org/2000/svg">
<path d="M0 12.8C0 8.31958 0 6.07937 0.871948 4.36808C1.63893 2.86278 2.86278 1.63893 4.36808 0.871948C6.07937 0 8.31958 0 12.8 0H251.2C255.68 0 257.921 0 259.632 0.871948C261.137 1.63893 262.361 2.86278 263.128 4.36808C264 6.07937 264 8.31958 264 12.8V170.2C264 174.68 264 176.921 263.128 178.632C262.361 180.137 261.137 181.361 259.632 182.128C257.921 183 255.68 183 251.2 183H12.8C8.31958 183 6.07937 183 4.36808 182.128C2.86278 181.361 1.63893 180.137 0.871948 178.632C0 176.921 0 174.68 0 170.2V12.8Z" fill="#D1D1D0"/>
<path d="M270 181C268.167 180 262.5 177.5 263.5 172L258 182L270 181Z" fill="#D1D1D0" stroke="#D1D1D0" stroke-width="0.5"/>
</svg>
