<svg width="271" height="183" preserveAspectRatio="none" viewBox="0 0 271 183" fill="none" xmlns="http://www.w3.org/2000/svg">
<path d="M271 12.8C271 8.31958 271 6.07937 270.128 4.36808C269.361 2.86278 268.137 1.63893 266.632 0.871948C264.921 0 262.68 0 258.2 0H19.8C15.3196 0 13.0794 0 11.3681 0.871948C9.86279 1.63893 8.63895 2.86278 7.87195 4.36808C7 6.07937 7 8.31958 7 12.8V170.2C7 174.68 7 176.921 7.87195 178.632C8.63895 180.137 9.86279 181.361 11.3681 182.128C13.0794 183 15.3196 183 19.8 183H258.2C262.68 183 264.921 183 266.632 182.128C268.137 181.361 269.361 180.137 270.128 178.632C271 176.921 271 174.68 271 170.2V12.8Z" fill="#D1D1D0"/>
<path d="M1 181C2.83333 180 8.5 177.5 7.5 172L13 182L1 181Z" fill="#D1D1D0" stroke="#D1D1D0" stroke-width="0.5"/>
</svg>
