<svg width="62" height="62" viewBox="0 0 62 62" fill="none" xmlns="http://www.w3.org/2000/svg">
<rect width="62" height="62" rx="5" fill="#6F8ABE"/>
<path opacity="0.9" d="M10.344 39.088V37.02H11.466C11.8327 37.02 12.1113 36.9393 12.302 36.778C12.4927 36.602 12.676 36.3307 12.852 35.964L13.314 34.952L6.956 23.38H9.684L14.436 32.422L18.462 23.38H21.08L14.744 37.13C14.392 37.8487 14.0033 38.3547 13.578 38.648C13.1673 38.9413 12.6027 39.088 11.884 39.088H10.344ZM21.1734 41.992V36.822H21.9214C22.4641 36.8073 22.9114 36.514 23.2634 35.942C23.6301 35.37 23.9161 34.424 24.1214 33.104C24.3414 31.784 24.4808 30.0093 24.5394 27.78L24.6494 23.38H34.7034V36.822H36.6834V41.992H34.5054V39H23.3514V41.992H21.1734ZM25.0454 36.822H32.2174V25.558H26.9374L26.8714 28.11C26.7981 30.6473 26.6221 32.6053 26.3434 33.984C26.0794 35.348 25.6468 36.294 25.0454 36.822ZM38.8136 39V23.38H41.2776V29.914H43.1036L48.0096 23.38H50.8256L45.0836 30.948L51.2436 39H48.2296L43.1036 32.18H41.2776V39H38.8136Z" fill="white"/>
</svg>
