<svg width="26" height="25" viewBox="0 0 26 25" fill="none" xmlns="http://www.w3.org/2000/svg">
<path fill-rule="evenodd" clip-rule="evenodd" d="M19.9166 5.9111V5.73566C19.9166 4.91178 20.574 4.24388 21.3977 4.24388C22.2157 4.24388 22.8788 4.90338 22.8788 5.73566V8.55219L25.2245 10.6436C26.1077 11.4311 25.872 12.0695 24.7002 12.0695H22.8788V23.7146C22.8788 24.3062 22.3906 24.7857 21.8171 24.7857H4.19249C3.60611 24.7857 3.13075 24.3077 3.13075 23.7146V12.0695H1.29996C0.12717 12.0695 -0.109456 11.4328 0.775686 10.6436L12.1971 0.46028C12.6406 0.0648867 13.3557 0.0614099 13.803 0.46028L19.9166 5.9111ZM15.967 14.5148V21.7044H19.9166V14.5148H15.967Z" fill="#A3A3A3"/>
</svg>
