<svg width="28" height="28" viewBox="0 0 28 28" fill="none" xmlns="http://www.w3.org/2000/svg">
<path fill-rule="evenodd" clip-rule="evenodd" d="M25.5249 22.4861C23.956 21.5754 22.4427 21.1273 21.2554 20.8566C21.2578 20.8554 21.2602 20.8554 21.2627 20.8541C21.1439 20.8274 21.0373 20.8056 20.9246 20.7825C20.8507 20.7667 20.7768 20.7497 20.7054 20.7364C20.0257 20.5955 19.4914 20.5069 19.1994 20.4109C18.4325 20.1547 17.6074 19.884 17.6074 18.7911C17.6074 17.6995 17.5929 17.5562 17.8546 17.4105C18.3525 17.1288 18.6469 16.6941 18.7123 16.3565C18.8335 15.7263 18.8965 13.9608 19.054 13.7362C19.2115 13.5067 19.4938 13.7022 19.5907 13.1849C19.684 12.6676 19.684 12.2135 19.7773 12.0204C19.8718 11.8262 20.2013 10.5731 19.9978 10.1432C19.8161 9.75951 19.4865 9.95986 19.4635 9.72186C19.4235 9.33452 20.1274 6.08275 19.6513 4.70578C19.3835 3.92502 18.8177 3.20132 18.8129 3.18432C18.4664 1.92028 16.076 1.24273 15.4775 0.982879C14.879 0.724243 13.1186 0.368467 11.9228 0.982879C10.727 1.59851 10.4059 2.42663 9.90069 2.74962C9.39789 3.07504 8.86117 3.27296 8.36685 4.70578C7.89071 6.08275 8.59463 9.33452 8.55586 9.72186C8.53284 9.95986 8.20208 9.75951 8.02277 10.1432C7.81681 10.5731 8.14756 11.8262 8.24085 12.0204C8.33535 12.2135 8.33535 12.6676 8.43107 13.1849C8.52436 13.7022 8.80665 13.5067 8.96536 13.7362C9.12287 13.9608 9.18587 15.7263 9.30702 16.3565C9.37124 16.6941 9.66686 17.1288 10.1648 17.4105C10.4253 17.5562 10.412 17.6995 10.412 18.7911C10.412 19.884 9.5881 20.1547 8.81877 20.4109C7.99491 20.6854 5.30525 20.842 2.47505 22.4861C0.042246 23.8983 0.202171 27.9636 0.202171 27.9636H10.9499H13.4154H27.7978C27.7978 27.9636 27.9589 23.8983 25.5249 22.4861Z" fill="#A3A3A3"/>
</svg>
