<svg width="24" height="25" viewBox="0 0 24 25" fill="none" xmlns="http://www.w3.org/2000/svg">
<path fill-rule="evenodd" clip-rule="evenodd" d="M17.2797 16.9822L22.9194 22.6218C23.4055 23.1079 23.4055 23.896 22.9194 24.3821C22.4333 24.8682 21.6452 24.8682 21.1591 24.3821L15.4233 18.6463C13.8667 19.7178 11.9852 20.3443 9.95873 20.3443C4.59675 20.3443 0.25 15.958 0.25 10.5472C0.25 5.13634 4.59675 0.75 9.95873 0.75C15.3207 0.75 19.6675 5.13634 19.6675 10.5472C19.6675 13.0101 18.7668 15.2608 17.2797 16.9822ZM9.95873 17.8322C13.9458 17.8322 17.178 14.5706 17.178 10.5472C17.178 6.52373 13.9458 3.26209 9.95873 3.26209C5.97161 3.26209 2.73942 6.52373 2.73942 10.5472C2.73942 14.5706 5.97161 17.8322 9.95873 17.8322Z" fill="#A3A3A3"/>
</svg>
