<svg width="263" height="78" viewBox="0 0 263 78" fill="none" xmlns="http://www.w3.org/2000/svg">
<path d="M52.535 12.0258C36.3945 17.1901 10.2157 17.8267 3.21656 36.9125C-0.613937 47.3579 4.97244 69.461 17.2548 72.234C41.599 77.7303 66.3596 76.8512 91.1863 76.8512C133.008 76.8512 174.831 76.8512 216.653 76.8512C228.257 76.8512 240.136 78.2132 250.779 72.6957C260.255 67.7825 262 61.2396 262 51.272C262 23.1857 230.444 19.1978 209.541 13.2263C200.99 10.7835 191.448 10.4281 182.666 8.70147C171.247 6.45646 160.08 5.37709 148.447 5.37709C124.487 5.37709 100.69 1.22162 76.6401 1.22162C61.6989 1.22162 46.6425 0.69349 31.7086 1.26779C20.9106 1.68304 10.9338 6.639 1 10.3637" stroke="#F8D72F" stroke-width="2" stroke-miterlimit="0" stroke-linejoin="bevel"/>
</svg>
