<svg xmlns="http://www.w3.org/2000/svg" width="28" height="28" viewBox="0 0 28 28">
    <g fill="none" fill-rule="evenodd">
        <g fill="#585858" fill-rule="nonzero">
            <g>
                <g>
                    <path d="M14.367 23.245c.787 0 1.585-.081 2.392-.244.808-.163 1.51-.4 2.108-.713l-.55-1.63c-.597.3-1.239.524-1.924.673-.686.15-1.361.224-2.026.224-1.535 0-2.892-.323-4.073-.967-1.181-.645-2.094-1.545-2.74-2.699-.644-1.153-.966-2.477-.966-3.97 0-1.467.325-2.777.977-3.93.652-1.155 1.575-2.054 2.77-2.699 1.194-.645 2.565-.967 4.113-.967 1.534 0 2.892.305 4.073.916 1.18.611 2.1 1.466 2.759 2.566.658 1.1.988 2.37.988 3.808 0 1.195-.146 2.108-.438 2.739-.292.631-.716.947-1.273.947-.312 0-.567-.109-.764-.326-.196-.217-.295-.57-.295-1.059V8.991h-2.26v1.323c-.394-.475-.88-.835-1.456-1.08-.577-.243-1.225-.366-1.945-.366-.923 0-1.758.221-2.505.662-.746.441-1.33 1.052-1.75 1.833-.422.78-.632 1.666-.632 2.657 0 1.005.21 1.901.631 2.688.42.788 1.005 1.402 1.751 1.843.747.441 1.582.662 2.505.662 1.63 0 2.851-.59 3.666-1.772.176.57.488 1.008.936 1.314.448.305.998.458 1.65.458 1.222 0 2.179-.499 2.871-1.497.692-.997 1.039-2.379 1.039-4.144 0-1.71-.404-3.244-1.212-4.602-.808-1.357-1.938-2.416-3.39-3.177-1.453-.76-3.103-1.14-4.949-1.14-1.914 0-3.608.4-5.08 1.202-1.474.8-2.617 1.904-3.432 3.309-.815 1.405-1.222 2.99-1.222 4.755 0 1.792.404 3.393 1.212 4.805.808 1.412 1.941 2.519 3.4 3.32 1.46.8 3.14 1.201 5.04 1.201zm-.102-6.007c-.896 0-1.623-.292-2.18-.876-.556-.584-.834-1.364-.834-2.342 0-.964.278-1.734.835-2.31.556-.578 1.283-.866 2.179-.866.882 0 1.605.285 2.168.855.564.57.846 1.344.846 2.321 0 .991-.282 1.775-.846 2.352-.563.577-1.286.866-2.168.866z" transform="translate(-1092 -282) translate(780 234) translate(312 48)"/>
                </g>
            </g>
        </g>
    </g>
</svg>
