<svg width="59" height="57" viewBox="0 0 59 57" fill="none" xmlns="http://www.w3.org/2000/svg">
<path d="M59 38.963C59 36.7888 57.5506 34.9526 55.543 34.2609V16.9611L59 15.5841L29.5 4.14917L0 15.5841L29.5 27.0192L52.0859 18.3022V34.2609C50.0783 34.9526 48.6289 36.7888 48.6289 38.963C48.6289 40.9536 49.8458 42.6622 51.5905 43.4697L48.7184 51.794L51.9965 52.8508L53.8145 47.5817L55.6324 52.8508L58.9105 51.794L56.0384 43.4697C57.7831 42.6624 59 40.9537 59 38.963Z" fill="black"/>
<path d="M29.5 30.6184L13.9434 24.5835V28.9436C13.9434 33.7038 20.6312 37.2932 29.5 37.2932C38.3688 37.2932 45.0566 33.7038 45.0566 28.9436V24.5835L29.5 30.6184Z" fill="black"/>
</svg>
